<?xml version="1.0" encoding="UTF-8"?>
<svg width="637px" height="327px" viewBox="0 0 637 327" version="1.1" xmlns="http://www.w3.org/2000/svg" xmlns:xlink="http://www.w3.org/1999/xlink">
    <!-- Generator: Sketch 51.2 (57519) - http://www.bohemiancoding.com/sketch -->
    <title>row-layout</title>
    <desc>Created with Sketch.</desc>
    <defs></defs>
    <g id="row-layout" stroke="none" stroke-width="1" fill="none" fill-rule="evenodd">
        <rect fill="#F8F7F5" x="0" y="0" width="637" height="327"></rect>
        <g id="row/icon" transform="translate(104.000000, 121.000000)">
            <path d="M0,0 L375,0 L375,72 L0,72 L0,0 Z" id="bounds" fill="#FFFFFF" fill-rule="evenodd"></path>
            <g id="divider/iOS" transform="translate(0.000000, 71.000000)" fill="#E0E0E0" fill-rule="nonzero">
                <rect id="Dividers" x="72" y="0.5" width="303" height="1"></rect>
            </g>
            <g id="Oval" transform="translate(16.000000, 16.000000)">
                <circle id="background" fill="#BFBFBF" fill-rule="nonzero" cx="20" cy="20" r="20"></circle>
                <g id="icons/files/folder-default-white" transform="translate(8.000000, 8.000000)">
                    <rect id="bounds" x="0" y="0" width="24" height="24"></rect>
                    <path d="M3,19.0049107 L20.999095,19 L21,7.9996374 L12.0037842,8 C11.3290525,8 10.6998044,7.65978903 10.3303153,7.09521781 L9,5.00489008 L2.99514697,5 L3,19.0049107 Z M1,4.99508929 C1,3.8932319 1.89987974,3 2.99514697,3 L9.03838218,3 C9.59178425,3 10.2850988,3.3738863 10.5873158,3.83566725 L12.0037842,6 L20.9959107,6 C22.1027387,6 23,6.89339733 23,7.9996374 L23,19.0003626 C23,20.1047318 22.1034544,21 20.999095,21 L3.000905,21 C1.89583568,21 1,20.1073772 1,19.0049107 L1,4.99508929 Z" id="Combined-Shape" fill="#FFFFFF" fill-rule="nonzero"></path>
                </g>
            </g>
            <text id="Body" font-family="TTNorms-Regular, TT Norms" font-size="16" font-weight="normal" line-spacing="20" fill="#7B7B7B">
                <tspan x="72" y="55">Body - 16 px regular </tspan>
            </text>
            <text id="Title" font-family="TTNorms-Medium, TT Norms" font-size="16" font-weight="400" line-spacing="20" fill="#353F41">
                <tspan x="72" y="33">Subheading - 16px medium</tspan>
            </text>
        </g>
        <text id="Row-structure" font-family="TTNorms-Medium, TT Norms" font-size="22" font-weight="400" fill="#353F41">
            <tspan x="104" y="71">Row structure </tspan>
        </text>
        <text id="72-px" font-family="TTNorms-Medium, TT Norms" font-size="12" font-weight="400" fill="#353F41">
            <tspan x="499.66" y="161">72 px</tspan>
        </text>
        <text id="16-px" font-family="TTNorms-Medium, TT Norms" font-size="12" font-weight="400" fill="#353F41">
            <tspan x="100.23" y="252">16 px</tspan>
        </text>
        <text id="16-px-copy" font-family="TTNorms-Medium, TT Norms" font-size="12" font-weight="400" fill="#353F41">
            <tspan x="152.23" y="252">16 px</tspan>
        </text>
        <text id="16-px-copy-2" font-family="TTNorms-Medium, TT Norms" font-size="12" font-weight="400" fill="#353F41">
            <tspan x="28.23" y="133">16 px</tspan>
        </text>
        <text id="40-px" font-family="TTNorms-Medium, TT Norms" font-size="12" font-weight="400" fill="#353F41">
            <tspan x="61.28" y="161">40 px</tspan>
        </text>
        <path d="M500,121 L544,121 L544,193 L500,193" id="Rectangle-2" stroke="#FF0000" stroke-dasharray="5" fill-rule="nonzero"></path>
        <path d="M122,200 L122,231 M106,231 L106,200" id="Rectangle-2-Copy-2" stroke="#FF0000" opacity="0.5" stroke-linecap="round" stroke-linejoin="round" stroke-dasharray="5" fill-rule="nonzero"></path>
        <path d="M140,177 L92,177 L140,177 Z M92,137 L140,137 L92,137 Z" id="Rectangle-2-Copy-4" stroke="#FF0000" opacity="0.5" stroke-linecap="round" stroke-linejoin="round" stroke-dasharray="5" fill-rule="nonzero"></path>
        <path d="M93.0588235,79 L93.0588235,181 M78,181 L78,79" id="Rectangle-2-Copy-6" stroke="#FF0000" opacity="0.5" stroke-linecap="round" stroke-linejoin="round" stroke-dasharray="5" fill-rule="nonzero" transform="translate(86.000000, 130.000000) rotate(-270.000000) translate(-86.000000, -130.000000) "></path>
        <path d="M174,200 L174,231 M158,231 L158,200" id="Rectangle-2-Copy-3" stroke="#FF0000" opacity="0.5" stroke-linecap="round" stroke-linejoin="round" stroke-dasharray="5" fill-rule="nonzero"></path>
    </g>
</svg>