<svg xmlns="http://www.w3.org/2000/svg" width="104" height="100" viewBox="0 0 104 100">
    <g fill="none" fill-rule="evenodd">
        <path d="M-4-4h108v108H-4z"/>
        <path fill="#575756" d="M59 59.017c0-6.223 5.05-11.267 11.25-11.267 6.213 0 11.25 5.028 11.25 11.267V63.5c2.486.007 4.5 2 4.5 4.496v9.008a4.503 4.503 0 0 1-4.513 4.496H59.013a4.493 4.493 0 0 1-4.513-4.496v-9.008A4.503 4.503 0 0 1 59 63.5v-4.483zm9 4.483h4.5v-4.483a2.248 2.248 0 0 0-2.25-2.267c-1.233 0-2.25 1.018-2.25 2.267V63.5zm36 2.25c0 18.64-15.11 33.75-33.75 33.75-12.951 0-24.199-7.295-29.857-18H9.504C4.531 81.5.5 77.483.5 72.522V9.478C.5 4.52 4.55.5 9.478.5h27.195c2.49 0 5.61 1.682 6.97 3.76L50.017 14h40.465c4.98 0 9.018 4.02 9.018 8.998v25.903A33.595 33.595 0 0 1 104 65.75zM90.5 22.998L50.017 23a9 9 0 0 1-7.53-4.072L36.5 9.522 9.478 9.5 9.5 72.522s12.499-.011 27.677-.015a33.904 33.904 0 0 1-.677-6.757C36.5 47.11 51.61 32 70.25 32a33.6 33.6 0 0 1 20.25 6.747V22.998zM70.25 90.5C83.919 90.5 95 79.419 95 65.75S83.919 41 70.25 41 45.5 52.081 45.5 65.75 56.581 90.5 70.25 90.5z"/>
    </g>
</svg>
