<?xml version="1.0" encoding="UTF-8"?>
<svg width="86px" height="91px" viewBox="0 0 86 91" version="1.1" xmlns="http://www.w3.org/2000/svg" xmlns:xlink="http://www.w3.org/1999/xlink">
    <!-- Generator: Sketch 49 (51002) - http://www.bohemiancoding.com/sketch -->
    <title>icon-2</title>
    <desc>Created with Sketch.</desc>
    <defs></defs>
    <g id="Page-1" stroke="none" stroke-width="1" fill="none" fill-rule="evenodd">
        <g id="dezeen" transform="translate(-758.000000, -3685.000000)">
            <g id="icon-2" transform="translate(747.000000, 3676.000000)">
                <rect id="bounds" x="0" y="0" width="108" height="108"></rect>
                <path d="M54.0280203,12.874079 C54.0280203,12.874079 54.2945891,12.6044516 56.6351228,11.6731924 C61.543116,9.72038396 66.9219169,8.77134678 72.5504785,9.39515198 C85.8138342,10.8651102 96.8645508,22.0781892 96.8645508,36.0591797 C96.8645508,47.4744327 94.1159865,62.4999324 89.8711563,75.205433 C84.9370919,89.9739289 79.2399305,99.0861201 72.0498408,99.0782199 C65.5548261,99.0710835 60.0413818,92.7191162 54,78.75 C47.7660828,93.1019897 42.465916,99.1050192 35.9273291,98.9994132 C29.3887422,98.8938072 23.14212,89.7767316 18.2335218,75.0870942 C13.9921157,62.3941185 11.25,47.4152047 11.25,36 C11.25,21.9512087 22.3336937,10.9323926 35.5505366,9.39026997 C45.0109863,8.28643799 54.0280203,12.874079 54.0280203,12.874079 Z M66.7687624,24.432649 C68.149659,26.4989859 67.5939998,29.2935208 65.5276629,30.6744173 C63.461326,32.0553139 60.6667911,31.4996547 59.2858946,29.4333178 C58.2293953,27.8524004 50.2261963,17.0669861 36.4384918,18.1082153 C27.62757,18.7736045 20.25,26.7468003 20.25,36 C20.25,46.3788637 22.8190047,60.412152 26.7695681,72.2347419 C30.3487291,82.9458604 34.726218,89.97884 36.0726709,90.0005868 C37.4233893,90.0224025 45.3933105,77.9804077 49.0333207,65.9717274 C50.6851295,60.5222802 57.3088229,60.7687798 59.0070898,66.0905414 C63.3485413,79.6950989 70.6380805,90.0766633 72.0597295,90.0782254 C72.2140739,90.078395 76.8845215,85.9512634 81.3349563,72.3535406 C85.2172914,60.4915727 87.8645508,46.4386456 87.8645508,36.0591797 C87.8645508,26.8610747 80.4114428,19.1002326 71.5336304,18.1163177 C68.401519,17.7691905 65.3317759,18.2505496 62.4112819,19.1632146 C64.0203392,20.7557387 65.4836984,22.5097134 66.7687624,24.432649 Z M38.25,22.5 C40.7352814,22.5 42.75,24.5147186 42.75,27 C42.75,29.4852814 40.7352814,31.5 38.25,31.5 C35.7647186,31.5 33.75,33.5147186 33.75,36 C33.75,38.4852814 31.7352814,40.5 29.25,40.5 C26.7647186,40.5 24.75,38.4852814 24.75,36 C24.75,28.5441559 30.7941559,22.5 38.25,22.5 Z" id="Combined-Shape" fill="#575756" fill-rule="nonzero"></path>
            </g>
        </g>
    </g>
</svg>