<svg xmlns="http://www.w3.org/2000/svg" width="100" height="82" viewBox="0 0 100 82">
    <g fill="none" fill-rule="evenodd">
        <path d="M-4-13h108V95H-4z"/>
        <path fill="#575756" d="M.5 9.478C.5 4.52 4.55.5 9.478.5h27.195c2.49 0 5.61 1.682 6.97 3.76L50.017 14h40.465c4.98 0 9.018 4.02 9.018 8.998v49.504c0 4.97-4.034 8.998-9.004 8.998H9.504C4.531 81.5.5 77.483.5 72.522V9.478zm9 63.044l80.996-.022.004-49.502L50.017 23a9 9 0 0 1-7.53-4.072L36.5 9.522 9.478 9.5 9.5 72.522zm26.692-31.646c1.023-2.276 3.09-2.522 4.602-.57l6.485 8.377a4.639 4.639 0 0 0 6.382.9l1.3-.949c2.007-1.464 4.71-.94 6.026 1.15l6.24 9.915c1.32 2.1.376 3.801-2.11 3.801h-34.6c-2.486 0-3.674-1.838-2.648-4.12l8.323-18.504zm29.41 4.624a6.75 6.75 0 1 1 0-13.5 6.75 6.75 0 0 1 0 13.5z"/>
    </g>
</svg>
