<?xml version="1.0" encoding="UTF-8"?>
<svg width="82px" height="90px" viewBox="0 0 82 90" version="1.1" xmlns="http://www.w3.org/2000/svg" xmlns:xlink="http://www.w3.org/1999/xlink">
    <!-- Generator: Sketch 49 (51002) - http://www.bohemiancoding.com/sketch -->
    <title>icon-1</title>
    <desc>Created with Sketch.</desc>
    <defs></defs>
    <g id="Page-1" stroke="none" stroke-width="1" fill="none" fill-rule="evenodd">
        <g id="dezeen" transform="translate(-974.000000, -3685.000000)">
            <g id="icon-1" transform="translate(961.000000, 3676.000000)">
                <rect id="bounds" x="0" y="0" width="108" height="108"></rect>
                <path d="M22.5,9 L85.5,9 C90.4705627,9 94.5,13.0294373 94.5,18 L94.5,90 C94.5,94.9705627 90.4705627,99 85.5,99 L22.5,99 C17.5294373,99 13.5,94.9705627 13.5,90 L13.5,18 C13.5,13.0294373 17.5294373,9 22.5,9 Z M40.5,90 L40.5,82.4818243 C35.2566343,80.6285605 31.5,75.6279847 31.5,69.75 C31.5,62.2941559 37.5441559,56.25 45,56.25 C47.6816222,56.25 50.2675937,57.0399086 52.4645992,58.5 C53.1367599,58.9499989 53.6485601,59.1749983 54,59.1749983 C54.3309605,59.1749983 54.8427608,58.9499989 55.5354008,58.5 C57.7324063,57.0399086 60.3183778,56.25 63,56.25 C70.4558441,56.25 76.5,62.2941559 76.5,69.75 C76.5,75.6279847 72.7433657,80.6285605 67.5,82.4818243 L67.5,90 L85.5,90 L85.5,18 L67.5,18 L67.5,25.5181757 C72.7433657,27.3714395 76.5,32.3720153 76.5,38.25 C76.5,45.7058441 70.4558441,51.75 63,51.75 C60.3183778,51.75 57.7324063,50.9600914 55.5354008,49.5 C54.8620677,49.0500011 54.3570679,48.8250017 54.0204013,48.8250017 C53.6746675,48.8250017 53.1560668,49.0500011 52.4645992,49.5 C50.2675937,50.9600914 47.6816222,51.75 45,51.75 C37.5441559,51.75 31.5,45.7058441 31.5,38.25 C31.5,32.3720153 35.2566343,27.3714395 40.5,25.5181757 L40.5,18 L22.5,18 L22.5,90 L40.5,90 Z M58.5,18 L49.5,18 L49.5,29.25 C49.5,31.7352814 47.4852814,33.75 45,33.75 C42.5147186,33.75 40.5,35.7647186 40.5,38.25 C40.5,40.7352814 42.5147186,42.75 45,42.75 C46.1156717,42.75 47.1570647,42.3483669 47.9753043,41.6261737 C48.7975178,40.9004731 49.8564389,40.5 50.9531049,40.5 L57.0468951,40.5 C58.1435611,40.5 59.2024822,40.9004731 60.0246957,41.6261737 C60.8429353,42.3483669 61.8843283,42.75 63,42.75 C65.4852814,42.75 67.5,40.7352814 67.5,38.25 C67.5,35.7647186 65.4852814,33.75 63,33.75 C60.5147186,33.75 58.5,31.7352814 58.5,29.25 L58.5,18 Z M58.5,90 L58.5,78.75 C58.5,76.2647186 60.5147186,74.25 63,74.25 C65.4852814,74.25 67.5,72.2352814 67.5,69.75 C67.5,67.2647186 65.4852814,65.25 63,65.25 C61.8843283,65.25 60.8429353,65.6516331 60.0246957,66.3738263 C59.2024822,67.0995269 58.1435611,67.5 57.0468951,67.5 L50.9531049,67.5 C49.8564389,67.5 48.7975178,67.0995269 47.9753043,66.3738263 C47.1570647,65.6516331 46.1156717,65.25 45,65.25 C42.5147186,65.25 40.5,67.2647186 40.5,69.75 C40.5,72.2352814 42.5147186,74.25 45,74.25 C47.4852814,74.25 49.5,76.2647186 49.5,78.75 L49.5,90 L58.5,90 Z" id="Combined-Shape" fill="#575756" fill-rule="nonzero"></path>
            </g>
        </g>
    </g>
</svg>