<svg xmlns="http://www.w3.org/2000/svg" width="95" height="104" viewBox="0 0 95 104">
    <g fill="none" fill-rule="evenodd">
        <path d="M-7-1h108v108H-7z"/>
        <path fill="#575756" d="M9.48 9.5l.02 72s9.152-.004 19.92-.004A33.696 33.696 0 0 1 27.5 70.25c0-12.503 6.799-23.418 16.901-29.25h-7.9a4.5 4.5 0 0 1-4.5-4.5v-27H9.48zM63.5 32H41.001V9.501L63.5 32zm2.25 49.48c0 2.49-2.015 4.52-4.5 4.52a4.499 4.499 0 0 1-4.5-4.52V69.867l-3.568 3.566a4.5 4.5 0 0 1-6.364-6.364l11.25-11.25a4.5 4.5 0 0 1 6.364 0l11.25 11.25a4.5 4.5 0 0 1-6.364 6.364l-3.568-3.687v11.736zm6.75-50.833c0-1.221-.707-2.955-1.58-3.827L46.19 2.08C45.328 1.218 43.604.5 42.363.5H9.48C4.53.5.5 4.53.5 9.5v72c0 4.958 4.034 9 9.01 9h24.738c6.157 8.198 15.96 13.5 27.002 13.5C79.89 104 95 88.89 95 70.25c0-14.695-9.392-27.196-22.5-31.83v-7.773zM86 70.25C86 56.581 74.919 45.5 61.25 45.5S36.5 56.581 36.5 70.25 47.581 95 61.25 95 86 83.919 86 70.25z"/>
    </g>
</svg>
