<?xml version="1.0" standalone="no"?>
<!DOCTYPE svg PUBLIC "-//W3C//DTD SVG 20010904//EN"
 "http://www.w3.org/TR/2001/REC-SVG-20010904/DTD/svg10.dtd">
<svg version="1.0" xmlns="http://www.w3.org/2000/svg"
 width="260.000000pt" height="260.000000pt" viewBox="0 0 260.000000 260.000000"
 preserveAspectRatio="xMidYMid meet">
<metadata>
Created by potrace 1.11, written by Peter Selinger 2001-2013
</metadata>
<g transform="translate(0.000000,260.000000) scale(0.100000,-0.100000)"
fill="#000000" stroke="none">
<path d="M514 2345 c-198 -43 -372 -180 -452 -355 -44 -95 -57 -160 -56 -280
1 -124 23 -214 77 -309 112 -197 325 -322 552 -325 213 -2 337 56 536 251
l126 124 103 -102 c107 -105 145 -129 205 -129 40 0 100 22 128 48 32 28 57
89 57 134 -1 67 -30 115 -129 213 -50 49 -91 94 -91 100 0 6 52 61 115 123 89
85 127 115 167 130 103 38 233 8 304 -70 51 -56 67 -101 68 -183 1 -116 -4
-122 -490 -605 l-434 -430 -132 131 c-152 150 -193 175 -271 165 -82 -9 -151
-77 -161 -159 -10 -81 2 -98 232 -330 120 -120 234 -226 255 -236 46 -23 127
-19 169 7 51 33 1058 1044 1097 1101 79 118 112 236 107 380 -11 296 -212 537
-505 605 -85 20 -249 14 -327 -12 -135 -45 -185 -79 -347 -239 l-118 -117
-117 117 c-64 64 -128 125 -142 135 -49 37 -141 84 -202 103 -81 26 -241 32
-324 14z m249 -383 c29 -13 86 -60 156 -130 61 -60 111 -112 111 -116 0 -19
-225 -226 -265 -245 -131 -62 -286 -10 -358 118 -26 46 -31 65 -31 125 0 107
49 192 139 239 77 40 171 43 248 9z"/>
</g>
</svg>
