<svg xmlns="http://www.w3.org/2000/svg" xmlns:xlink="http://www.w3.org/1999/xlink" width="1200" height="524" viewBox="0 0 1200 524">
    <defs>
        <path id="a" d="M171.783 33.057c-16.284.948-24.911.264-38.503 3.075C119.688 38.943 55.797 46.073.263 93.559c0 0 15.328 38.906 35.94 55.898 20.612 16.993 48.645 42.685 63.246 61.979 14.602 19.294 26.718 31.901 26.718 31.901s16.891-16.873 22.855-23.563c5.964-6.688 23.111-15.561 35.069-26.014 11.96-10.452 10.525-7.512 12.197-12.347 1.673-4.838 1.103-9.823 1.103-9.823s12.535 11.399 20.597 15.531c8.061 4.131 10.516 7.891 22.7 2.513s25.776-8.19 43.763-11.047c17.988-2.859 51.182-10.782 51.182-10.782s-1.981-15.984-7.549-28.834c-5.567-12.849-15.98-27.368-26.615-38.529-10.638-11.16-30.878-33.75-37.762-48.823C256.823 36.547 226.693.035 226.693.035s-38.626 32.076-54.91 33.022z"/>
        <linearGradient id="c" x1="41.145%" x2="24.062%" y1="39.948%" y2="12.086%">
            <stop offset="0%" stop-color="#35385E"/>
            <stop offset="100%" stop-color="#414568"/>
        </linearGradient>
    </defs>
    <g fill="none" fill-rule="evenodd">
        <path fill="#8CD1CA" d="M0 453h1200V-79H0z"/>
        <g transform="translate(604 151)">
            <mask id="b" fill="#fff">
                <use xlink:href="#a"/>
            </mask>
            <path fill="#F37576" d="M369.926 233.728L5.704 293.475-43.863-7.598 320.36-67.345z" mask="url(#b)"/>
            <path fill="#F69799" d="M24.761 298.776l-12.646 2.074L-44-39.987l12.648-2.075zM50.054 294.626L37.408 296.7-18.707-44.137-6.06-46.21zM75.347 290.477l-12.646 2.075L6.586-48.286l12.647-2.074zM100.64 286.328l-12.646 2.074L31.88-52.435l12.647-2.075zM125.933 282.179l-12.646 2.074L57.172-56.584l12.647-2.074zM151.227 278.03l-12.646 2.075L82.465-60.733l12.648-2.074zM176.52 273.881l-12.646 2.074L107.76-64.882l12.647-2.074zM201.813 269.732l-12.646 2.074-56.115-340.837 12.647-2.074zM227.106 265.582l-12.646 2.075L158.345-73.18l12.647-2.075zM252.399 261.434l-12.646 2.074L183.638-77.33l12.647-2.074zM277.693 257.284l-12.646 2.075L208.93-81.478l12.647-2.075zM302.986 253.135l-12.646 2.075-56.115-340.837 12.647-2.075zM328.279 248.987l-12.646 2.074-56.115-340.837 12.647-2.074zM353.572 244.837l-12.646 2.074L284.81-93.926 297.458-96z" mask="url(#b)"/>
            <path fill="#FFF" fill-opacity=".1" d="M-33.609 23.131l-2.078-12.624 341.458-56.013 2.078 12.624zM-29.452 48.378l-2.078-12.624 341.457-56.013 2.078 12.624zM-25.295 73.625l-2.078-12.624L314.085 4.988l2.078 12.624zM-21.138 98.872l-2.08-12.624 341.459-56.012 2.078 12.623zM-16.982 124.12l-2.078-12.624 341.457-56.013 2.08 12.623zM-12.826 149.367l-2.078-12.623L326.554 80.73l2.078 12.623zM-8.668 174.614l-2.08-12.623 341.459-56.013 2.078 12.623zM-4.512 199.862l-2.078-12.624 341.457-56.013 2.079 12.624zM-.356 225.109l-2.078-12.624 341.458-56.013 2.078 12.624zM3.801 250.356l-2.078-12.624 341.457-56.013 2.078 12.624zM7.958 275.603L5.88 262.979l341.458-56.013 2.078 12.624zM12.114 300.85l-2.078-12.623 341.458-56.013 2.078 12.623z" mask="url(#b)"/>
        </g>
        <g transform="translate(-1 -80)">
            <path fill="#FFF" fill-rule="nonzero" d="M117 125.8c.3-.5.9-.6 1.4-.3 2.9 2 10.6-.7 15.3-6.4.2-.3.6-.4 1-.4.4.1.7.3.8.7 1.4 4.3 5.2 5.7 7.4 5.4 7.2-1.1 13.8-10.1 14.7-12.7.1-.4.6-.7 1-.7.5 0 .8.4.9.8.4 2.2 3.1 9.4 7.6 10.8 4.5 1.4 9.3 2.4 15.6-4.2.2-.3.6-.4 1-.3.4.1.6.3.7.7 1.9 6.6 6.3 6.9 9.7 6.1.5-.1 1.1.2 1.2.7.1.5-.2 1.1-.7 1.2-.8.2-1.8.4-2.8.6-3.3.5-7.3.3-9.4-4.5-5.6 5.2-11.4 2.8-14.6 1.9-3.2-.9-8.2-4.1-9.7-6.6-2.6 4.6-9.7 7.2-15.9 8.2-.8.1-6.9.3-8.5-2.6-4.8 4.8-12.3 5.5-16.3 2.8-.6-.1-.7-.8-.4-1.2z"/>
            <path fill="#000" fill-rule="nonzero" d="M1122.9 278.6c-.4-2-2.4-3.3-4.4-2.9l-112.7 23.2 35.7-103.3c.6-1.6-.3-3.4-1.9-4l-1.4-.5-.6-5.1-157.3 23.4 3-7c.6-1.5.4-3.2-.6-4.4l7.3-17.2c1.8.7 3.7 1.3 5.6 1.8 6.8 1.9 13.9 2.9 20.9 2.9 16.7 0 33.3-5.5 46.7-15.6 13.9-10.4 23.7-24.7 28.3-41.4 11.5-41.3-5.9-94.7-47.3-106.1-6.8-1.9-13.9-2.9-20.9-2.9v10.4-10.4c-16.7 0-40.2 15.9-53.7 26-13.9 10.4-23.7 24.7-28.3 41.4-10.2 36.5 7.7 74.4 40.6 90.6l-7.4 17.4c-1.4.3-2.6 1.2-3.2 2.6L859.7 225c-.6 1.4-.4 3 .4 4.2l-7.6 18L836 240c-4.2-1.9-7.4-5.4-9.1-9.7-1.6-4.3-1.5-9 .5-13.3 4-8.7 14.3-12.5 23-8.6 2.2 1 4.8 0 5.8-2.1 1-2.2 0-4.7-2.1-5.7-13.1-6-28.5-.2-34.5 12.8-2.9 6.3-3.1 13.4-.7 19.9 2.4 6.5 7.3 11.7 13.6 14.6l20.6 9c.6.2 1.1.4 1.7.4.5 0 1.1-.1 1.6-.3 1.1-.4 1.9-1.3 2.4-2.3l9.3-21.9c1.5-.2 2.8-1.1 3.5-2.6l120.7 74.1-2.7 7.9c-.4 1-.1 2.2.5 3L979 347l-13.6-10.4c-3.5 4.6-2.7 11.2 2 14.8l22.5 17.2c1.3 1 3.3.8 4.3-.6l1.5-1.9c1.7-2.2 1.3-5.4-.9-7.1l-8.6-6.5 12-34.9c.9-.3 1.6-1 2-1.9l2.9-8.5 117-24.1c2-.5 3.2-2.5 2.8-4.5zM924.5 93.9c-2.2-.9-4.8.1-5.7 2.3l-30.1 65.3c-25-12.8-38.5-41.9-30.7-70 7.3-26.1 38.2-54.7 65.3-54.7 5.5 0 10.9.7 16.3 2.2 32.2 8.9 51.1 42.4 42.2 74.5-7.3 26.1-38.2 54.7-65.3 54.7-5.5 0-10.9-.7-16.3-2.2-1.2-.3-2.4-.7-3.5-1.1l30.2-65.3c.9-2.2-.2-4.8-2.4-5.7zm61.9-21zm-44.9-40.5c9 2.5 17 6.7 23.9 12.1 1.7 1.4 3.4 2.8 4.9 4.3 1.6 1.5 3.1 3.1 4.5 4.7 2.8 3.3 5.3 6.8 7.4 10.6-2.1-3.8-4.6-7.3-7.4-10.6-1.4-1.6-2.9-3.2-4.5-4.7s-3.2-3-4.9-4.3c-6.9-5.5-14.9-9.6-23.9-12.1-6-1.7-12.1-2.5-18.1-2.5 5.9 0 12 .8 18.1 2.5zm55.1 259l-110.7-68 141.5-21-30.8 89z" opacity=".1"/>
            <path fill="#E5F4F7" fill-rule="nonzero" d="M630.875 0C631.156.483 421.198.483 1 0 .968 233.578.968 349.588 1 348.028 344.878 435.931 889.942 91.801 630.875 0z"/>
            <path fill="#FFF" fill-rule="nonzero" d="M460 177.1c.4-.4.7-.6 1.4-.2 5 2.3 11.7-1.4 15.6-4.7.2-.2.7-.4 1-.2.3.1.7.7.7.9.3 3.2 4.1 7.7 6.5 8 7.9 1.3 11.6-4.5 14.8-10.1.5-.9.4-.7 1.1-.8.7 0 .6 0 1 .8 1.8 3.7 2.6 7.8 8.1 8.3 5.5.5 11.1-2.3 15.4-6.7.2-.2.7-.4 1-.3.3.1.6.4.7.7 1.6 4.9 4.3 7.3 9.3 6.8.8-.1 1.1.3 1.2.8.1.5 0 1-.8 1.2-.8.2-1.6.3-2.9.4-4 .2-7.2-1-9.2-5-4.1 3.7-9.5 4.6-14.2 4.2-4.7-.4-6.9-1.4-10.1-4.2-4.4 5.8-8.5 7.3-16.4 5.7-1-.2-7.4-2.9-7.8-5.3-5.4 2.7-11.3 4.1-16.5.9-.4-.2-.3-.8.1-1.2zM324.7 117.1c.4-.5.5-.6 1.4-.3 5.5 2.2 11.5-2.5 15.2-6.4.2-.2.6-.4 1-.3.3.1.8.5.8.7.3 2.7 4 6.5 6 6.4 6.7-.1 9.4-5.3 11.8-10.1.4-.8.4-.8 1-.7.6 0 .8 0 1 .8 1 3.8 5 8.8 8.4 10 3.4 1.2 4.9 2.9 1 2.3-3.9-.6-7.5-3.3-10.2-6-3.4 4.7-7.3 5.9-13.6 5.8-.8 0-6.6-1.5-7.1-3.5-5 3.9-10.5 5.7-16.2 2.7-.9-.3-.9-.9-.5-1.4z"/>
            <path fill="#23BAAA" fill-rule="nonzero" d="M597.3 51C583.9 51 573 61.9 573 75.3c0 6 2.2 11.5 5.9 15.8l18.4-15.8-10 22.1c3.1 1.4 6.4 2.2 10 2.2 13.4 0 24.3-10.9 24.3-24.3S610.8 51 597.3 51zM325.3 167c-13.4 0-24.3 10.9-24.3 24.3 0 6 2.2 11.5 5.9 15.8l18.4-15.8-10 22.1c3.1 1.4 6.4 2.2 10 2.2 13.4 0 24.3-10.9 24.3-24.3S338.8 167 325.3 167zM78.163 106c-13.4 0-24.3 10.9-24.3 24.3 0 6 2.2 11.5 5.9 15.8l18.4-15.8-10 22.1c3.1 1.4 6.4 2.2 10 2.2 13.4 0 24.3-10.9 24.3-24.3s-10.8-24.3-24.3-24.3zM629.7 98.7c-8.5-4.6-19.1-1.4-23.6 7.1-4.6 8.5-1.4 19 7.1 23.6 3.8 2 8.1 2.5 12 1.7l-3.7-17 15.4 8.2c4.5-8.4 1.3-19-7.2-23.6z"/>
            <path fill="#000" fill-rule="nonzero" d="M889.5 568.9c-1.2-.8-2.5-1.3-3.7-1.5l-4.9-15.7.7-2.4s-.8-.9-2.2-2.5l-.3-.9-.1.5c-9.1-10.1-39-42.7-53-50.3-9.1-4.9-24.1-34.5-31.5-54.6-2.5-6.7 25.5-28.3 25.5-28.3l-11.5-26s-12.7 6.6-31.1 13.3c-18.3 6.7-9.7 24.3-9.7 24.3s24.5 79.2 45 98.7c7.3 6.9 61.3 39.5 64.6 42-.6.6-3.2 6.9-3.4 7.3-1.1 2.3-2.5 8.5-4.7 13.1-1.7 3.6 0 16.5 10 12.8 10-3.7 14.4-23.7 14.4-23.7s2.3-1.6-4.1-6.1z" opacity=".1"/>
            <path fill="#000" fill-rule="nonzero" d="M805.8 392.3s-20.5 11.3-34.8 18.5c-14.4 7.2-28 21.6-28 21.6s-17.5-37.1-21-41.4c-3.5-4.4-9.9-11.5-9.9-11.5s2.5 6.7 3.2 13.9c.7 7.2.4 11.2.4 11.2l12.8 4.5 7 18.5s-24.8-.3-31.2-7.4c-6.4-7.1-14-32.7-15.4-41.6-1.4-8.9-5.7-20.6-.9-28 4.8-7.4 7.5-10.3 10.7-17.2 3.2-6.8 1.9-10.2 1.9-10.2l15.4 5.7s3.6-7.9 6.3-13.7c1.1-2.3 3.8-5.2 7.7-4.7 4 .4 4.8-7.4 8.2-8.7 3.4-1.3 6.3-13.7 6.1-19.3-.2-5.6.3-9.6-3.1-8.3-3.4 1.3-16.9 15.7-16.9 15.7l-11-9.2s8.6-12.6 18.4-21.9c9.8-9.3 22.4-19.6 26.1-11.5 5.7 12.8 8.4 32.3 8.1 42.4-.3 11.2-1.6 21.4 4 36.4 5.5 15 21.6 43.1 25.7 49.2 4.2 6 7.1 8.7 10.2 17z" opacity=".1"/>
            <path fill="#000" fill-rule="nonzero" d="M679.5 271.3s-2.9 6.8 9.8 21.5c11 12.7 35.2 19.4 35.2 19.4L704 279.1l-24.5-7.8zM894.8 560.5s1.8 5 3.1 8.3c1.2 3.3 7.4 8 7.2 14.4-1.3 36.1-13.6 14.5-13.8 8.9-.2-5.6-6.8-18.3-9.7-21-2.9-2.7 2.2-7 4-14.7 1.5-6.4 6.7-2.6 9.2 4.1zM573.5 278.7s-11.7 2-21.5 36.2c-7.7 26.7-22.5 23.5-15.7 40.1 2.4 5.8 14.7 11.7 23.5-8.8 8.8-20.6 14.7-61.6 13.7-67.5z" opacity=".1"/>
            <path fill="#000" fill-rule="nonzero" d="M781.7 319.2c5.5 15 21.6 43.1 25.7 49.2 4.1 6 7 8.8 10.1 17.1 0 0-20.5 11.3-34.8 18.5-14.4 7.2-25.1 16.8-25.1 16.8s-20.4-32.2-23.9-36.6c-3.5-4.4-9.9-11.5-9.9-11.5s2.5 6.7 3.2 13.9c.7 7.2.4 11.2.4 11.2l15.7 1.5 10.8 14.7s-33.7 4.2-40.1-2.9c-6.4-7.1-11.7-30.4-13.1-39.3-1.4-8.9-5.7-20.6-.9-28 4.8-7.4 7.5-10.3 10.7-17.2 3.2-6.8 1.9-10.2 1.9-10.2l15.4 5.7s3.6-7.9 6.3-13.7c1.1-2.3 3.8-5.2 7.7-4.7" opacity=".1"/>
            <path fill="#242A4B" fill-rule="nonzero" d="M875.4 552.9l12.4 18.2 8.2-8.7-10.3-22.7z"/>
            <path fill="#242A4B" fill-rule="nonzero" d="M875.5 553.7l3.6 21.7 11-4.5-8.2-26z"/>
            <path fill="url(#c)" fill-rule="nonzero" d="M829.7 403.4s27.5 69.3 30.7 83.2c3.2 13.9 18.8 68.3 18.8 68.3l-58.5-78.3s-13.4-33.2-20.4-39.8c-29.2-27.5 17-60 29.4-33.4z"/>
            <path fill="#414568" fill-rule="nonzero" d="M891.3 539.5l-16.8 21.3s-53.6-42.7-61.7-49.1c-8.1-6.5-15.7-16.9-22.9-31.3-7.2-14.4-35.2-64.6-35.2-64.6s14-18.4 32.4-25.2c18.3-6.7 31.1-13.3 31.1-13.3l11.5 26c-6.5-12.3-41.1-3.2-25.5 28.3 9.5 19.1 22.4 49.6 31.5 54.6 16.6 9.1 55.6 53.3 55.6 53.3z"/>
            <path fill="#E69D31" fill-rule="nonzero" d="M815.9 371.9l-62.4 41.4 2.4 5.8 62.4-41.4z"/>
            <path fill="#F8F5ED" fill-rule="nonzero" d="M725.2 264.1L716 275l7.6 10.4 12.6-12.1z"/>
            <path fill="#6E6EA5" fill-rule="nonzero" d="M713.4 298.7l5.5 15 11.8 1.3 5.1-17-5.5-15"/>
            <path fill="#000" fill-rule="nonzero" d="M721.6 308.4s5.3 1.1 9.8-7.8c2.8-5.6 2.2-8.4 1-11.7-.5-1.3-2-5.9-2-5.9l-1 6.8-15 10.9 1.7 6 5.5 1.7z" opacity=".1"/>
            <path fill="#6E6EA5" fill-rule="nonzero" d="M724.9 272.9s-6-15-12.8-15.5c0 0-5.7-1.6-13 3.7-8.1 4-9.3 9.8-9.3 9.8-2.7 6.3 7.9 18.4 7.9 18.4-3.9.3-1.6 3.7-1.6 3.7 4.1 7.2 9.2 5.7 9.2 5.7 8.6 9.9 20.1 5.4 20.1 5.4s9.3-8.1 4.4-20.2c0 0 3.7-3.9-.9-10.8 0 .1-2-3.5-4-.2z"/>
            <path fill="#E4F3F6" fill-rule="nonzero" d="M705.7 271.6s-3.8 2.3-7.7 3.7c0 0-5.9 2-3.2 7.3l4 6.5s-28-11.2-20-21.3c1.5-2 7.2-1.3 10.6-3.5 3.4-2.3 5.5-4.7 11.8-9.2 11-8 24.7 8.1 23.3 18.4l-5.1-7.1s-2.8-4-6.8-.1c0-.1-4 3.6-6.9 5.3z"/>
            <path fill="#F8F5ED" fill-rule="nonzero" d="M817.6 375.7s-20.5 11.3-34.8 18.5c-14.4 7.2-28 21.6-28 21.6s-17.5-37.1-21-41.4c-3.5-4.4-9.9-11.5-9.9-11.5s2.5 6.7 3.2 13.9c.7 7.2.4 11.2.4 11.2l12.8 4.5 7 18.5s-24.8-.3-31.2-7.4c-6.4-7.1-14-32.7-15.4-41.6-1.4-8.9-5.7-20.6-.9-28 4.8-7.4 7.5-10.3 10.7-17.2 3.2-6.8 1.9-10.2 1.9-10.2l15.4 5.7s3.6-7.9 6.3-13.7c1.1-2.3 3.8-5.2 7.7-4.7 4 .4 4.8-7.4 8.2-8.7 3.3-1.2 6.3-13.7 6.1-19.3-.2-5.6.3-9.6-3.1-8.3-3.3 1.2-16.9 15.7-16.9 15.7l-11-9.2s8.6-12.6 18.4-21.9c9.8-9.3 22.4-19.6 26.1-11.5 5.7 12.8 8.4 32.3 8.1 42.4-.3 11.2-1.6 21.4 4 36.4s21.6 43.1 25.7 49.2c4.1 6.1 7.1 8.7 10.2 17z"/>
            <path fill="#000" fill-rule="nonzero" d="M749 404.2s8.7-13.4 12.9-15.5c4.2-2.1 2.8-1.1 4.9-.4 2.1.7 14-3.5 14 0s1.4 9.8-1.4 11.2c-2.8 1.4-25.5 14.5-25.5 14.5l-4.9-9.8z" opacity=".1"/>
            <path fill="#6E6EA5" fill-rule="nonzero" d="M753.3 392.4s6-5.6 10.4-7.2c4.4-1.6 6.7-.1 8.7.9 2 1 11.4-1.5 11 1.9-.4 3.5.3 9.9-2.6 11-2.9 1.1-21.7 4.6-25.1 4.3-3.6-.4-2.4-10.9-2.4-10.9z"/>
            <path fill="#F8F5ED" fill-rule="nonzero" d="M740.2 392.5l15.3-5.4s5.5 15 4.5 17.3c-1.1 2.3-12.7 6.6-12.7 6.6"/>
            <path fill="#E69D31" fill-rule="nonzero" d="M736.3 294l-8.6 12.6-15.2-.1s-.4 3.9.2 5.6c.6 1.7 11.5 2.7 15.8 1.5 0 0 .4-3.7 2.1-4.3 1.7-.6 4.7-.5 4.7-.5 2.6-3.7 2.4-5.9 3.5-8.2.7-1.5-2.5-6.6-2.5-6.6z"/>
            <path fill="#0E163C" fill-rule="nonzero" d="M898.7 559.5s1.8 5 3.1 8.3c1.2 3.3 8.7 8.1 7.2 14.4-8.9 37.3-13.6 14.5-13.6 14.5l-.2-5.6c-.2-5.6-6.8-18.3-9.7-21-2.9-2.7 2.2-7 4-14.7 1.6-6.3 6.7-2.6 9.2 4.1z"/>
            <path fill="#0E163C" fill-rule="nonzero" d="M877.8 574.7c-1.1 2.3-2.5 8.5-4.7 13.1-1.7 3.6-4 14.7 6 11 10-3.7 18.4-21.9 18.4-21.9s2.3-1.5-4.1-6c-6.4-4.5-14.5 1.6-15.6 3.8z"/>
            <path fill="#414568" fill-rule="nonzero" d="M709.2 281.8c-1.5-.4-3.2-.2-4.7.7-2.7 1.7-3.4 5.3-1.7 8 .9 1.3 2.2 2.2 3.7 2.5 1.4.3 3 0 4.3-.8 2.7-1.7 3.4-5.3 1.7-8-.8-1.2-2-2-3.3-2.4zM721.1 274c-1.5-.4-3.2-.2-4.7.7-2.7 1.7-3.4 5.3-1.7 8 .9 1.3 2.2 2.2 3.7 2.5 1.4.3 3 0 4.3-.8 2.7-1.7 3.4-5.3 1.7-8-.8-1.2-2-2-3.3-2.4z"/>
            <path fill="#414568" fill-rule="nonzero" d="M716.6 281.9l.4-1.4c-2-.5-3.8-.3-5.1.6-2.1 1.5-2.4 4.2-2.4 4.4l1.5.1s.2-2.2 1.8-3.3c.9-.7 2.2-.9 3.8-.4z"/>
            <path fill="#414568" fill-rule="nonzero" d="M720.9 274.8c-1.3-.4-2.8-.2-4 .6-2.3 1.5-2.9 4.5-1.4 6.8.8 1.1 1.9 1.9 3.2 2.1 1.2.2 2.5 0 3.7-.7 2.3-1.5 2.9-4.5 1.4-6.8-.8-1-1.8-1.7-2.9-2zM709 282.6c-1.3-.4-2.8-.2-4 .6-2.3 1.5-2.9 4.5-1.4 6.8.8 1.1 1.9 1.9 3.2 2.1 1.2.2 2.5 0 3.7-.7 2.3-1.5 2.9-4.5 1.4-6.8-.8-1-1.8-1.7-2.9-2z"/>
            <path fill="#B86625" fill-rule="nonzero" d="M560.6 305c1.5-3.9 2.4-6.6 2.3-7.3-.2-1.9 1.4-5.8 2.4-6.5 1-.7 4-5 4-5l1.3-8.9s-5.5 3.5-8 .4c-1.3-1.7 4-5 6.2-8s6.4-10.5 7.7-12.2c2.5-.4 7.4 0 10.2.5.6.1 1.3.4 2 .9 1.1 1.3 9.1 14.8 10.9 17 1.8 2.2 2.5 3.1 1.2 4.3-1.2 1.1-8.6-1.8-10.2-2.1-1.6-.3-1.1 4.2-1.3 7.7-.1 3.5-1.7 6.3-1.7 6.3s2.6 6.2 1.8 8.7c-.4 1.3-1.7 4.9-2.9 8.4-4.6 4.3-9.9 11.5-14.7 20.1-7.9 14.2-11.5 27.6-8.9 31.8-1.1 1.4-2.4 2.5-3.8 3.1-4.8 2.1-10.5-1.6-10.5-1.6s-3.6 6.4-5.3 8.5c-1.7 2.1-3.1 6.7-3.7 11.1-.7 4.4-3.4 2.9-4-.4-.6-3.3 3.4-14.9 5.7-19 2.3-4.1-2.4-5.5-2.5-13.9 5.3-3.6 10.9-9.8 15.2-17.7 5.2-9.6 7.5-19.4 6.6-26.2z"/>
            <path fill="#CB8048" fill-rule="nonzero" d="M580.9 253.2c1.8 1 3.9 1 5.5.2.5 1.5.9 3.3 1.1 4.1.1.4.5 1 1.1 1.6-.7-.5-1.4-.8-2-.9-2.8-.5-7.7-.9-10.2-.5.3-.4.6-.8.9-1 .9-.8 2-2.6 2.6-4.1.3.1.7.4 1 .6z"/>
            <path fill="#575756" fill-rule="nonzero" d="M580.9 253.2c-.4-.2-.7-.5-1.1-.7.2-.5.4-1 .4-1.4.3-1.6 3.8-1.5 4.9-.3.5.5.9 1.5 1.2 2.6-1.4.8-3.5.8-5.4-.2z"/>
            <path fill="#CB8048" fill-rule="nonzero" d="M548.9 329.5c4.9-8.8 9.1-18.2 11.6-24.5 1 6.8-1.3 16.7-6.7 26.3-4.4 7.9-9.9 14.1-15.2 17.7 0-.8 0-1.5.2-2.3.6-3.3 8.3-14 10.1-17.2zM571.7 329.5c4.8-8.7 10.2-15.9 14.7-20.1-1.2 3.5-2.3 6.9-2.5 7.8-.3 1.6-1.3 7.7-4.8 12.9s-9.8 15.5-11.2 20.2c-1 3.2-2.7 7.8-5.3 11-2.4-4.2 1.2-17.6 9.1-31.8z"/>
            <path fill="#00B8E4" fill-rule="nonzero" d="M587.6 292.1s.2.5.5 1.4c-4.1.2-10.3-.3-20.3-5.2.8-1.1 1.5-2.1 1.5-2.1l.3-1.7c9.9 4.9 15.5 5.1 19.2 4.8-.6 1.7-1.2 2.8-1.2 2.8z"/>
            <circle cx="646.8" cy="408.1" r="31.7" fill="#000" fill-rule="nonzero" opacity=".1"/>
            <circle cx="647.6" cy="405.5" r="31.7" fill="#EEF8F7" fill-rule="nonzero"/>
            <circle cx="647.6" cy="405.5" r="22.4" fill="#B3E1E5" fill-rule="nonzero"/>
            <path fill="#659D42" fill-rule="nonzero" d="M645.4 376.1c2.2 2.8 7.6 20.1-9.3 32.3l-.8-1-4.3-5-.6-.7s3.2-3.7 1.8-6.8c-1.4-3.1.9-3.4 1.1-2.9.3.5 1.2.1.8-1.6-.4-1.7.8-2.6 1.8-2.9 1-.3.9-.8.8-1.8-.1-1 .2-1.9 1.4-2.3 1.3-.4 1-1 .9-1.9-.2-.9.2-2.1 1.6-2.2 1.3-.1 1-1.4 1-2.4-.1-1 1.6-3.6 3.8-.8z"/>
            <path fill="#84BF42" fill-rule="nonzero" d="M641.1 416.3l1-8.6s-4.6-1.2-5.2-4.5c-.6-3.3-2.5-2.3-2.5-1.7 0 .6-.9.7-1.5-.9s-2.1-1.7-3-1.4c-1 .3-1.2-.2-1.6-1.1-.5-.9-1.2-1.4-2.5-1.1-1.3.3-1.4-.3-1.7-1.1-.3-.8-1.4-1.6-2.5-.9-1.1.6-1.6-.6-2.1-1.4-.6-.8-3.4-2-3.6 1.5-.3 3.5 4.8 20.5 25.2 21.2z"/>
            <path fill="#C2D84D" fill-rule="nonzero" d="M631.5 412.9c4.2 1.8 8 2.1 9.8 2.2l.7-6.4c-1 0-2.8-.2-4.1-1.3-1.2-1-1.9-2.6-2-4.6 0-.3-.3-.6-.6-.6h-.1c-.4 0-.6.3-.6.7.1 2.2.8 3.9 2 5.1 0 0 .2.8-.5.5-.4-.2-.7-.5-1.1-.7-2.5-1.9-3.7-4.4-3.4-7.4 0-.4-.2-.7-.6-.7-.4 0-.7.2-.7.6-.4 4.6 2.2 7.4 4.6 9 0 0 .3.4-.3.2-2.8-1.4-6.8-4.5-7.6-10.9 0-.3-.3-.5-.6-.6h-.2c-.4 0-.6.4-.6.7.8 6.4 4.7 9.8 7.7 11.5 0 0-.3 0-.7-.2-4.2-2-9.1-6-9.7-13.8 0-.3-.3-.6-.6-.6h-.1c-.4 0-.6.3-.6.7.6 8.3 5.9 12.6 10.4 14.8 0 0 .8.6-.1.6-7.2-3-11.8-8.8-13.7-17.3-.1-.3-.3-.5-.6-.5h-.2c-.4.1-.6.4-.5.8 2.5 11.1 9.3 16 14.6 18.2z"/>
            <path fill="#C12F27" fill-rule="nonzero" d="M655.7 404.6l1.2-14.1s-4-.4-6.3 3-2 9.9 5.1 11.1z"/>
            <path fill="#DC592C" fill-rule="nonzero" d="M651.8 393.5c1.3-1.5 3-2.3 5.1-1.7l-1 11.9c-.8-.1-3.3-.6-4.7-2.9-1.8-2.9-1-5.5.6-7.3z"/>
            <path fill="#C33F27" fill-rule="nonzero" d="M655.5 397.7c0-.5.4-1 .9-.9l-.2 1.9c-.4-.1-.7-.5-.7-1z"/>
            <path fill="#AC2326" fill-rule="nonzero" d="M651.8 400.6l2.9-2.6-3.9-.3c.1 0-.2 1.3 1 2.9zM651.1 396.7l3.9.3-2.4-3s-1.2.7-1.5 2.7zM653.1 393.4l2.7 2.9.3-3.9s-1.3-.3-3 1z"/>
            <path fill="#C12F27" fill-rule="nonzero" d="M654.8 424.8l-12.7-6.2s-1.8 3.6.5 7c2.4 3.3 8.5 5.3 12.2-.8z"/>
            <path fill="#DC592C" fill-rule="nonzero" d="M643 424.4c-1-1.8-1.1-3.7.2-5.3l10.7 5.3c-.4.7-1.7 2.9-4.5 3.3-3.1.6-5.2-1.1-6.4-3.3z"/>
            <path fill="#C33F27" fill-rule="nonzero" d="M648.3 422.4c-.5-.2-.7-.7-.6-1.1l1.7.9c-.1.3-.6.4-1.1.2z"/>
            <path fill="#AC2326" fill-rule="nonzero" d="M653.1 424.7l-3.5-1.8 1.1 3.7s1.3-.1 2.4-1.9zM649.7 426.9l-1.4-3.7-1.7 3.5s1.1.8 3.1.2zM645.8 426.2l1.7-3.5-3.7 1.1s.2 1.4 2 2.4zM643.5 423.1l3.7-1.5-3.5-1.6c-.1 0-.8 1.1-.2 3.1zM655.2 403l.4-3.9-3.1 2.4c0-.1.6 1.1 2.7 1.5z"/>
            <path fill="#84B240" fill-rule="nonzero" d="M639.8 394.6s-.6 0-.4 1c.2 1 .9 5.6-.3 9.2-1.2 3.6-1.8 4.5 0 6.3 1.8 1.7 2.8.1 3.8 4s3.9 3.6 4.6 3.3c.7-.3 1.6-1.1 2.6.3 1 1.4 4.2 2.6 6 .7 1.8-2 1.7-3.7 1.2-4.6-.5-.9-.5-1.6.1-2.3.6-.7 2-2.7.9-4.1-1.1-1.3-3.7-.8-3.7-.8s-.4.3-.3-.3c0-.6.2-2.9-.9-4.3-1-1.4-2.5-2.3-5.4-2.3-2.9-.1-6.2.3-7.2-2.3-1-2.8-1-3.8-1-3.8z"/>
            <path fill="#CDE08E" fill-rule="nonzero" d="M639.6 395.1s1.3 4.5 3.9 8c2.7 3.5 4 4.2 5.7 3.7 1.7-.4 2.9-.9 2.9-.9s-2.3 1.4-4 1.3c-1.7-.1-1.5 0-.9 1.1.7 1 2.2 3.5 3.7 3.4 1.4 0 3.5-.4 3.5-.4s-.2.4-1.3.6c-1.1.2-3 .1-2.6.6.3.4 3.3 3.2 3.6 3.8l-1.9-1.3-.5 1.2.1-1.5s-2.5-2.6-3.1-3.3c-.6-.8-.9-1.4-.9-.1 0 1.2-.1 3.5-1.1 4.1 0 0 .9-1.9.6-3.7-.3-1.8-.5-3.1-1.2-3.8l-2.4-2.8s.2 3.2-.9 4.1c0 0 .2-2.3.2-2.9 0-.6.1-2.1-.2-2.6 0-.7-3.3-6.5-3.2-8.6z"/>
            <path fill="#F8F7F5" fill-rule="nonzero" d="M849.3 374.3l-13.5-2.1c-2.3-.4-3.8-2.5-3.5-4.7l4.3-27.3c.4-2.3 2.5-3.8 4.7-3.5l13.5 2.1c2.3.4 3.8 2.5 3.5 4.7l-4.3 27.3c-.3 2.3-2.4 3.8-4.7 3.5z"/>
            <path fill="#414568" fill-rule="nonzero" d="M849 371.5l-12.1-1.9c-1.3-.2-2.1-1.4-1.9-2.6l4-25.6c.2-1.2 1.4-2.1 2.6-1.9l12.1 1.9c1.3.2 2.1 1.4 1.9 2.6l-4 25.6c-.1 1.2-1.3 2.1-2.6 1.9z"/>
            <path fill="#F8F7F5" fill-rule="nonzero" d="M851.3 342.2l-7.6-1.2c-.4-.1-.7-.5-.6-.9l.1-.8 9.1 1.4-.1.8c-.1.5-.5.8-.9.7z"/>
            <path fill="#EEF8F7" fill-rule="nonzero" d="M656.9 347.4l-1.6 3.8 26.2 10.5.9-1.9z"/>
            <path fill="#EEF8F7" fill-rule="nonzero" d="M647.9 342.5l-.1.2 3.7 1.6-.4.9-3.7-1.6-.4.9 3.7 1.6-.4.9-3.7-1.6-.4.9 3.7 1.6-.4.9-3.7-1.6-.1.2c-.2.6 0 1.2.6 1.4l7 3.1c1.7.7 3.6 0 4.4-1.7l.4-1c.7-1.7 0-3.6-1.7-4.3l-7-3.1c-.6-.1-1.3.2-1.5.7z"/>
            <path stroke="#FFF" stroke-width="1.859" d="M1070.9 310.9l52.2-39.8M1060.7 248.9l62.2 21M1106.4 204.6l12.9 64.3M1164.2 216.6l-42.6 49.8M1188 280.6l-63.8-15.6M1183.9 297.4l-58.8-29.2M1129.6 334.3l-8.5-65M1065.5 299.9l58.7-29.5M1066.5 234.3l50.3 42.2M1117.9 202l-6.3 65.3M1142.8 206l-16 63.7M1177.9 230.1l-53.4 38.1M1164.4 320l-42.8-49.7M1137.8 333.3l-17-63.3"/>
            <path fill="#FFF" fill-rule="nonzero" d="M1123.1 201.7c16.4 0 32.9 5.9 45.9 17.9 27.4 25.3 29 67.9 3.7 95.3-13.3 14.4-31.4 21.6-49.6 21.6-16.4 0-32.9-5.9-45.9-17.9-27.4-25.3-29-67.9-3.7-95.3 13.3-14.3 31.4-21.6 49.6-21.6zm0-10.4c-21.7 0-42.5 9.1-57.2 24.9-14.1 15.2-21.5 35.1-20.7 55.8.8 20.8 9.7 40 24.9 54.1 14.4 13.3 33.2 20.7 52.9 20.7 21.6 0 42.5-9.1 57.2-24.9 14.1-15.2 21.5-35.1 20.7-55.8-.8-20.8-9.7-40-24.9-54.1-14.5-13.3-33.2-20.7-52.9-20.7z"/>
            <path fill="#EEF8F7" fill-rule="nonzero" d="M1123.1 201.7v6.9c15.3 0 29.9 5.7 41.2 16.1 11.9 11 18.8 25.9 19.4 42.1.6 16.1-5.1 31.6-16.1 43.4-11.4 12.3-27.7 19.4-44.5 19.4-15.3 0-29.9-5.7-41.2-16.1-11.9-11-18.8-25.9-19.4-42.1-.6-16.1 5.1-31.6 16.1-43.4 11.4-12.3 27.7-19.4 44.5-19.4v-6.9zm0 0c-18.2 0-36.3 7.3-49.6 21.6-25.3 27.3-23.7 70 3.7 95.3 13 12 29.4 17.9 45.9 17.9 18.2 0 36.3-7.3 49.6-21.6 25.3-27.3 23.7-70-3.7-95.3-13-12-29.5-17.9-45.9-17.9z"/>
            <path fill="#55568A" fill-rule="nonzero" d="M1123.1 255.1v3.7c2.6 0 5.1 1 7 2.8 2 1.9 3.2 4.4 3.3 7.2.1 2.8-.9 5.4-2.7 7.4-2 2.1-4.7 3.3-7.6 3.3-2.6 0-5.1-1-7-2.8-2-1.9-3.2-4.4-3.3-7.2-.1-2.8.9-5.4 2.7-7.4 2-2.1 4.7-3.3 7.6-3.3v-3.7zm0 0c-3.8 0-7.6 1.5-10.3 4.5-5.3 5.7-4.9 14.6.8 19.8 2.7 2.5 6.1 3.7 9.6 3.7 3.8 0 7.6-1.5 10.3-4.5 5.3-5.7 4.9-14.6-.8-19.8-2.8-2.5-6.2-3.7-9.6-3.7z"/>
            <path stroke="#FFF" stroke-width="1.859" d="M854.5 92.4l65.7 9M854.4 109.7l65.8-8.3M858.8 126.4l61.4-25M867.4 141.5l52.8-40.1M879.6 153.8l40.6-52.4M894.5 162.5l25.7-61.1M911.3 167l8.9-65.6M928.6 167.1l-8.4-65.7M945.4 162.7l-25.2-61.3M960.4 154.1l-40.2-52.7M972.7 142l-52.5-40.6M981.5 127l-61.3-25.6M986 110.3l-65.8-8.9M986.1 93l-65.9 8.4M981.7 76.3l-61.5 25.1M973.1 61.3l-52.9 40.1M960.9 49l-40.7 52.4M946 40.2l-25.8 61.2M929.2 35.7l-9 65.7M911.9 35.6l8.3 65.8M895.1 40l25.1 61.4M880.1 48.6l40.1 52.8M867.8 60.8l52.4 40.6M859 75.7l61.2 25.7"/>
            <path fill="#FFF" fill-rule="nonzero" d="M920.7 33.4c6 0 12.1.8 18.1 2.5 35.9 10 57 47.1 47 83-8.3 29.8-35.5 49.4-65 49.4-6 0-12.1-.8-18.1-2.5-35.9-10-57-47.1-47-83 8.3-29.9 35.5-49.4 65-49.4zm.1-10.4v10.4V23c-34.8 0-65.7 23.4-75 57-5.6 20-3 41 7.2 59.1s26.9 31.1 47 36.7c6.8 1.9 13.9 2.9 20.9 2.9 34.8 0 65.7-23.4 75-57 5.6-20 3-41-7.2-59.1s-26.9-31.1-47-36.7c-6.9-2-13.9-2.9-20.9-2.9z"/>
            <path fill="#EEF8F7" fill-rule="nonzero" d="M920.8 40.3c5.5 0 10.9.7 16.3 2.2 15.6 4.3 28.6 14.5 36.6 28.5 8 14.1 10 30.4 5.6 46-7.3 26.1-31.3 44.3-58.4 44.3-5.5 0-10.9-.7-16.3-2.2-15.6-4.3-28.6-14.5-36.6-28.5-8-14.1-10-30.4-5.6-46 7.2-26.1 31.2-44.3 58.4-44.3zm-.1-6.9c-29.6 0-56.7 19.5-65 49.4-10 35.9 11.1 73 47 83 6 1.7 12.1 2.5 18.1 2.5 29.6 0 56.7-19.5 65-49.4 10-35.9-11.1-73-47-83-6-1.7-12.1-2.5-18.1-2.5z"/>
            <path fill="#414568" fill-rule="nonzero" d="M981.7 344.7l8 2.7 13.9-40.2-8-2.8z"/>
            <path fill="#E69D31" fill-rule="nonzero" d="M1125.6 273.6c-1.5 1.4-3.9 1.3-5.3-.2l-76.7-81.9c-1.4-1.5-1.3-3.9.2-5.3s3.9-1.3 5.3.2l76.7 81.9c1.4 1.5 1.3 3.9-.2 5.3z"/>
            <circle cx="1038.9" cy="188.8" r="18.6" fill="#282461" fill-rule="nonzero"/>
            <path fill="#414568" fill-rule="nonzero" d="M859.2 250.3c-.6 0-1.2-.1-1.7-.4l-20.6-9c-6.4-2.9-11.2-8.1-13.6-14.6-2.4-6.5-2.2-13.6.7-19.9 6-13 21.4-18.8 34.5-12.8 2.2 1 3.1 3.6 2.1 5.7-1 2.2-3.6 3.1-5.8 2.1-8.7-4-19-.1-23 8.6-1.9 4.2-2.1 8.9-.5 13.3 1.6 4.3 4.8 7.8 9.1 9.7l16.5 7.2 59.4-140.5c.9-2.2 3.5-3.2 5.7-2.3 2.2.9 3.2 3.5 2.3 5.7l-61.1 144.6c-.5 1.1-1.3 1.9-2.4 2.3-.6.2-1.1.3-1.6.3z"/>
            <path fill="#E69D31" fill-rule="nonzero" d="M1127.3 271.7c-.4-2-2.4-3.3-4.4-2.9L1010.2 292l35.7-103.3c.6-1.6-.3-3.4-1.9-4l-1.4-.5-.6-5.1-157.3 23.4 3-7c1-2.3-.1-4.9-2.4-5.8l-3.6-1.5c-2.3-1-4.9.1-5.9 2.4l-11.6 27.5c-1 2.3.1 4.9 2.4 5.8l3.6 1.5c2.3 1 4.8-.1 5.8-2.3l120.7 74.1-2.7 7.9c-.6 1.6.3 3.4 1.9 4l4.7 1.6c1.6.6 3.4-.3 4-1.9l2.9-8.5 117-24.1c1.9-.6 3.2-2.5 2.8-4.5zm-237.1-55.2l141.5-21-30.7 89-110.8-68z"/>
            <path fill="#F8F5ED" fill-rule="nonzero" d="M994.2 361.6l-22.5-17.2c-4.6-3.5-5.5-10.1-2-14.8L999 352c2.2 1.7 2.7 4.9.9 7.1l-1.5 1.9c-1 1.3-2.9 1.6-4.2.6z"/>
            <path fill="#000" fill-rule="nonzero" d="M740 485.2l-58.2 8.4-3.1-39.8 62.6-8.2z" opacity=".1"/>
            <path fill="#E69D31" fill-rule="nonzero" d="M746.8 482.9l-61.7 7.3-4.7-38.8 61.7-7.3z"/>
            <path fill="#D9D6EB" fill-rule="nonzero" d="M711.7 447c-3.9.4-9.8 1.5-15.3 2.1-7.6.9-14.5 1.4-14.5 1.4l4.5 37.9s7.7-1.8 14.6-2.5c6.1-.7 13-1.3 14.5-1l-3.8-37.9z"/>
            <path fill="#D9D6EB" fill-rule="nonzero" d="M730.1 482.9c8.4-.8 15.3-1.4 15.3-1.4l-4.5-37.9s-5.4 1-13.9 1.8c-8.4.8-11.1 1.3-15.3 1.7l3.8 37.9h.3s5.8-1.3 14.3-2.1z"/>
            <path fill="#F8F5ED" fill-rule="nonzero" d="M711.7 447c-3.9.4-9.8-.1-15.3.6-7.6.9-14.5 2.9-14.5 2.9l4.5 37.9s7.7-3.3 14.6-4.1c6.1-.7 13 .3 14.5.5l-3.8-37.8z"/>
            <path fill="#F8F5ED" fill-rule="nonzero" d="M730.1 481.4c8.4-.8 15.3.1 15.3.1l-4.5-37.9s-5.4-.5-13.9.2c-8.4.8-11.1 2.8-15.3 3.2l3.8 37.9h.3s5.8-2.8 14.3-3.5z"/>
            <path fill="#000" fill-rule="nonzero" d="M730.1 481.4c8.4-.8 15.3.1 15.3.1l-4.5-37.9s-5.4-.5-13.9.2c-8.4.8-11.1 2.8-15.3 3.2l3.8 37.9h.3s5.8-2.8 14.3-3.5z" opacity=".03"/>
            <path stroke="#000" stroke-linecap="square" stroke-width="1.534" d="M710.2 477s-7 .2-10 .6c-6 .8-10 2.3-10 2.3M709.4 472.4s-7 .2-10 .6c-6 .8-10 2.3-10 2.3M708.6 467.8s-7 .2-10 .6c-6 .8-10 2.3-10 2.3M708.6 462.5s-7 .2-10 .6c-6 .8-10 2.3-10 2.3M707.9 457.9s-7 .2-10 .6c-6 .8-10 2.3-10 2.3M707.1 453.3s-7 .2-10 .6c-6 .8-10 2.3-10 2.3M740.1 473.2s-7 .2-10 .6c-6 .8-10 2.3-10 2.3M739.3 468.6s-7 .2-10 .6c-6 .8-10 2.3-10 2.3M738.5 464s-7 .2-10 .6c-6 .8-10 2.3-10 2.3M738.5 458.6s-7 .2-10 .6c-6 .8-10 2.3-10 2.3M737.8 454s-7 .2-10 .6c-6 .8-10 2.3-10 2.3M737 449.4s-7 .2-10 .6c-6 .8-10 2.3-10 2.3" opacity=".1"/>
        </g>
    </g>
</svg>
