<svg xmlns="http://www.w3.org/2000/svg" width="549" height="399" viewBox="0 0 549 399">
    <g fill="none" fill-rule="evenodd">
        <path d="M-90 1h712v398H-90z"/>
        <path d="M202 285h42V168h-42z"/>
        <path d="M197.164 283.941h7.01V168.043h-7.01z"/>
        <path d="M171.258 285.938h41.64V198h-41.64zM165 287h6v-89h-6zM302 285h42V168h-42zM296 285h6V168h-6zM254 286h42V179h-42zM248 286h6V179h-6zM382 277h42V160h-42z"/>
        <path d="M377.166 275.941h7.01V160.043h-7.01zM427 278h42v-89h-42zM419.166 276.938h7.01V189h-7.01zM74.258 285.938h41.64V198h-41.64zM68 287h6v-89h-6z"/>
        <path d="M120.32 224.753l-6.293 5.557v54.637h52.868V230.31l-6.293-5.557z"/>
        <path d="M127.297 224.753c-.468 0-.919.17-1.267.476l-5.143 4.529c-.398.35-.627.852-.627 1.377v51.96c0 1.022.848 1.852 1.893 1.852h49.211c1.046 0 1.894-.83 1.894-1.852v-51.96c0-.525-.228-1.026-.628-1.377l-5.142-4.53a1.912 1.912 0 0 0-1.266-.475h-38.925zM336 287h42v-89h-42zM330 287h6v-89h-6zM431.32 224.753l-6.293 5.557v54.637h52.868V230.31l-6.293-5.557z"/>
        <path d="M438.296 224.753c-.468 0-.918.17-1.266.476l-5.143 4.529c-.398.35-.627.852-.627 1.377v51.96c0 1.022.848 1.852 1.893 1.852h49.212c1.045 0 1.893-.83 1.893-1.852v-51.96c0-.525-.228-1.026-.628-1.377l-5.142-4.53a1.916 1.916 0 0 0-1.266-.475h-38.926zM18.32 224.753l-6.293 5.557v54.637h52.868V230.31l-6.294-5.557z"/>
        <path d="M24.296 224.753c-.468 0-.918.17-1.266.476l-5.143 4.529c-.398.35-.627.852-.627 1.377v51.96c0 1.022.848 1.852 1.893 1.852h49.212c1.045 0 1.893-.83 1.893-1.852v-51.96c0-.525-.228-1.026-.628-1.377l-5.141-4.53a1.92 1.92 0 0 0-1.267-.475H24.296zM101.821 270.045c-.708 1.604-2.166 2.762-3.85 3.072-8.355 1.539-14.54 9.523-13.531 18.78.835 7.658 6.74 13.893 14.153 14.933 3.541.495 6.894-.167 9.766-1.668 2.467-1.287 5.487-.578 6.97 1.826 3.234 5.247 9.17 8.552 15.796 7.832 7.654-.83 13.854-7.2 14.677-15.083.789-7.562-3.223-14.252-9.283-17.263-1.851-.919-3.11-2.825-3.056-4.94.053-2.024-.268-4.145-1.13-6.354-2.514-6.45-8.43-11.026-15.178-11.134-.087-.002-.174-.002-.261-.002-6.704 0-12.464 4.104-15.073 10.001"/>
        <path d="M12.45 241.046c-7.383.108-13.855 4.683-16.607 11.134-.94 2.209-1.292 4.33-1.235 6.353.059 2.116-1.317 4.022-3.343 4.94-6.632 3.011-11.02 9.7-10.156 17.264.9 7.883 7.683 14.252 16.058 15.084 7.248.718 13.742-2.586 17.281-7.833 1.623-2.404 4.928-3.113 7.626-1.826 3.143 1.5 6.81 2.163 10.685 1.668 8.11-1.04 14.57-7.275 15.484-14.933 1.104-9.257-5.663-17.241-14.803-18.78-1.842-.311-3.438-1.468-4.214-3.072-2.853-5.897-9.156-10.001-16.49-10.002-.095 0-.19 0-.286.003M483.32 224.769l-6.293 6.76V298h52.868v-66.47l-6.293-6.761z"/>
        <path d="M489.296 224.769c-.468 0-.918.206-1.267.579l-5.142 5.51c-.399.427-.627 1.035-.627 1.674v63.215c0 1.244.848 2.253 1.893 2.253h49.212c1.045 0 1.892-1.01 1.892-2.253v-63.215c0-.639-.227-1.247-.627-1.675l-5.142-5.51c-.348-.372-.799-.578-1.266-.578h-38.926z"/>
        <path d="M445.821 251.045c-.709 1.604-2.166 2.76-3.85 3.072-8.355 1.539-14.54 9.523-13.531 18.78.835 7.658 6.74 13.893 14.153 14.933 3.54.495 6.894-.167 9.766-1.668 2.466-1.287 5.487-.578 6.97 1.826 3.234 5.247 9.17 8.55 15.796 7.833 7.654-.832 13.854-7.201 14.677-15.084.789-7.563-3.223-14.253-9.283-17.263-1.851-.919-3.11-2.825-3.056-4.94.053-2.024-.268-4.145-1.13-6.354-2.514-6.45-8.43-11.026-15.178-11.134a11.428 11.428 0 0 0-.261-.003c-6.704 0-12.464 4.105-15.073 10.002"/>
        <path fill="#EDF7F6" d="M279.29 235.698a8.82 8.82 0 0 0-.225-.01c-5.05-.157-9.111-4.223-9.111-9.338v-2.017c0-6.812-5.453-12.333-12.18-12.333h-5.107c-6.726 0-12.18 5.521-12.18 12.333v17.316c-.324-.016-.645-.049-.974-.049-10.224 0-18.513 8.393-18.513 18.747s8.289 18.746 18.513 18.746h.022c1.244-.002 2.427.564 3.137 1.599 2.197 3.205 5.85 5.308 9.995 5.308h5.107c6.727 0 12.18-5.521 12.18-12.333a1.692 1.692 0 0 1 2.272-1.605 18.156 18.156 0 0 0 6.261 1.111c10.154 0 18.398-8.276 18.512-18.531.112-10.003-7.838-18.515-17.708-18.944"/>
        <path d="M50.47 251.043c-6.894 0-12.481 5.439-12.481 12.15v17.057c-.333-.017-.661-.05-.999-.05-10.476 0-18.97 8.268-18.97 18.469 0 10.199 8.494 18.467 18.97 18.467h.023c1.275-.002 2.488.554 3.214 1.574 2.25 3.158 5.995 5.229 10.242 5.229h5.234c6.893 0 12.48-5.44 12.48-12.149 0-1.174 1.195-1.98 2.329-1.58a19.3 19.3 0 0 0 6.416 1.094c10.404 0 18.852-8.153 18.97-18.255.113-9.855-8.032-18.24-18.147-18.663-.077-.004-.155-.005-.231-.007-5.174-.156-9.336-4.161-9.336-9.2v-1.987c0-6.71-5.588-12.15-12.48-12.15h-5.235zM361.47 233.043c-6.893 0-12.481 5.438-12.481 12.15v17.057c-.333-.017-.662-.048-.999-.048-10.476 0-18.97 8.266-18.97 18.466 0 10.199 8.494 18.467 18.97 18.467h.023c1.274 0 2.487.555 3.214 1.574 2.25 3.159 5.994 5.23 10.242 5.23h5.234c6.892 0 12.48-5.44 12.48-12.15 0-1.172 1.195-1.978 2.328-1.58a19.304 19.304 0 0 0 6.416 1.095c10.405 0 18.852-8.153 18.97-18.255.114-9.856-8.031-18.24-18.145-18.663l-.232-.008c-5.174-.156-9.336-4.161-9.336-9.199v-1.987c0-6.711-5.589-12.15-12.48-12.15h-5.235z"/>
        <path fill="#EDF7F6" d="M39.114 56.375c8.998.592 21.79 2.87 33.878 2.753-1.059-3.218-1.194-6.377-1.02-9.566.693-12.705 6.65-20.999 19.668-21.632 4.783-.232 8.901 1.883 13.165 3.505C106.987 12.27 115.473.465 135.949.58c31.015-.579 46.488 25.257 48.083 36.403 1.594 11.146 1.458 13.82-1.878 20.378.889.194 2.957.63 3.865.928 8.447 2.608 11.179 8.324 10.305 13.324-.875 4.999-2.019 8.36-10.622 7.793C134.055 67.59 85.427 88.956 37.587 77.43c-8.472-2.042-9.15-8.83-9.135-13.664.015-4.833 7.947-8.103 10.662-7.39"/>
        <path stroke="#FEFEFE" stroke-linecap="round" stroke-linejoin="round" stroke-width="2" d="M211.165 58.931c-8.84-6.875-21.61-9.822-35.361-10.804-13.752-.982-26.52 8.84-36.343 8.84-9.823 0-18.663-3.929-19.645-12.769-.982-8.84 3.929-17.68 11.787-18.661 7.858-.982 15.716 2.946 16.698 8.84.982 5.893-3.93 10.804-9.823 9.821"/>
        <path fill="#EDF7F6" d="M379.418 99.948c6.047.397 14.642 1.928 22.766 1.85-.712-2.161-.804-4.285-.686-6.428.466-8.538 4.469-14.111 13.216-14.536 3.214-.156 5.981 1.264 8.848 2.355 1.465-12.88 7.168-20.812 20.928-20.736 20.842-.388 31.24 16.972 32.311 24.462 1.07 7.49.98 9.288-1.262 13.695.597.13 1.986.422 2.597.625 5.677 1.751 7.512 5.592 6.925 8.951-.587 3.36-1.357 5.62-7.138 5.239-34.706-7.941-67.383 6.417-99.53-1.33-5.694-1.37-6.15-5.933-6.14-9.18.01-3.249 5.341-5.445 7.165-4.967"/>
        <path stroke="#FEFEFE" stroke-linecap="round" stroke-linejoin="round" stroke-width="2" d="M495.034 101.666c-5.94-4.62-14.522-6.6-23.762-7.261-9.24-.66-17.822 5.94-24.422 5.94-6.601 0-12.542-2.64-13.202-8.58-.66-5.94 2.64-11.88 7.921-12.54 5.28-.66 10.561 1.98 11.221 5.94.66 3.96-2.64 7.26-6.6 6.6"/>
        <path fill="#000" fill-opacity=".02" d="M52.389 283.172c3.744-.602 8.685-.475 12.655-.86 49.264-4.787 97.838-10.016 146.338-20.941 5.064-1.14 8.925-1.939 15.406-.861 89.417 14.856 186.064 1.18 274.323 15.944 31.362 5.247 47.739 18.921 47.739 41.643s-22.865 42.203-44.688 46.576c-3.36.674-12.455 1.048-15.87 1.32-40.348 3.22-76.728-6.149-117.492 5.286-40.765 11.436-51.551 32.855-110.34 25.844-58.788-7.011-153.034-29.043-217.892-24.55C11.11 371.26-2.46 355.28 1.545 327.029c3.921-27.653 25.752-39.818 50.844-43.856"/>
        <path fill="#B2E0E3" d="M59.737 263.548c-38.337 0-51.897-32.776-51.897-46.432 0-13.656 27.315-24.582 27.315-38.238 0-13.656-5.464-16.389-5.464-35.506 0-19.12 16.389-19.12 21.852-32.777C57.006 96.94 65.2 75.09 78.858 86.015c13.657 10.924-2.732 35.505 8.193 46.43 10.926 10.927 10.926 27.314 2.732 40.97-8.194 13.657 13.657 30.045 13.657 49.163 0 19.12-19.12 40.97-43.703 40.97"/>
        <path fill="#E4F3F5" d="M51.36 245.417c-.562-14.667 12.937-29.066 7.062-45.968-4.519-12.998-.138-19.326 8.684-28.301 8.821-8.977 2.199-24.375 14.225-29.856 8.507-3.878 12.067 3.853 14.264 11.742.088 6.827-1.928 13.91-5.812 20.381-5.82 9.7 3.513 20.78 9.413 33.235a22.11 22.11 0 0 0-.576 3.273c-.413 4.218 1.988 8.023 4.794 11.911.007.249.026.496.026.744 0 18.668-18.242 39.88-41.984 40.875-5.575-4.516-9.823-10.866-10.097-18.036"/>
        <path fill="#47BFB3" d="M58.422 199.45c-4.519-12.999-.138-19.327 8.684-28.302 8.821-8.976 2.199-24.375 14.225-29.856 8.507-3.878 12.067 3.853 14.264 11.742.088 6.826-1.928 13.909-5.812 20.382-5.82 9.699 3.513 20.778 9.413 33.234 2.298 4.852 4.063 9.914 4.218 15.185.007.248.026.495.026.743 0 18.668-18.242 39.88-41.984 40.875-5.575-4.517-9.823-10.866-10.097-18.036-.56-14.667 12.938-29.066 7.063-45.967"/>
        <path stroke="#EDF7F6" stroke-linecap="round" stroke-linejoin="round" stroke-width="2" d="M75.71 84.394c-6.57 9.03-18.705 89.022-21.435 127.259-2.732 38.238 2.73 95.595 2.73 95.595"/>
        <path stroke="#EDF7F6" stroke-linecap="round" stroke-linejoin="round" stroke-width="2" d="M90.315 136.82c-12.1.675-26.263 12.607-29.595 17.416-4.095-5.356-20.214-26.034-20.774-30.516M59.424 162.014c-13.616-10.26-26.362-27.883-23.367-36.998M64.609 128.313c-5.675-3.946-9.86-23.567-9.107-29.22M73.394 213.969c-8.61 3.721-14.724 10.204-19.304 16.818-8.912-3.517-30.585-27.073-28.889-36.127M88.585 186.751c-10.37 0-28.618 12.794-33.199 19.408"/>
        <path stroke="#EDF7F6" stroke-linecap="round" stroke-linejoin="round" stroke-width="2" d="M73.394 226.93c-8.61 3.722-14.724 10.206-19.304 16.819-8.912-3.517-43.548-27.072-41.851-36.128"/>
        <path fill="#B2E0E3" d="M85.233 275.574c17.728-2.631 25.914-12.903 30.636-25.884 4.722-12.98-11.333-22.269-9.456-32.763 1.875-10.495 9.437-12.935 11.173-22.35 1.735-9.415-6.46-16.66-8.14-25.39-1.677-8.73-2.424-26.557-14.846-22.044-12.421 4.514-7.037 20.388-16.54 28.638-9.503 8.251-14.37 14.213-10.893 27.528 4.521 17.313-10.073 30.6-10.673 45.266-.633 15.463 17.372 28.686 28.74 27"/>
        <path stroke="#EDF7F6" stroke-linecap="round" stroke-linejoin="round" stroke-width="2" d="M99.332 147.29c-2.666 24.227-11.842 62.605-12.279 86.908 1.364 30.715-6.83 52.566-13.236 75.406"/>
        <path stroke="#EDF7F6" stroke-linecap="round" stroke-linejoin="round" stroke-width="2" d="M80.38 173.973c5.174 2.269 6.909 15.37 11.708 20.487 6.868-3.82 13.789-17.745 19.043-19.022M90.792 202.237c6.867-3.82 17.677-20.336 22.931-21.615M62.182 230.757c6.96.065 22.027 13.86 25.506 19.39 3.335-3.264 18.662-19.134 18.48-28.078M58.293 238.534c6.959.065 24.62 12.565 28.099 18.094M67.367 207.425c6.96.065 15.546 12.565 19.024 18.094"/>
        <path fill="#F7F4EC" d="M227.05 223.826c-4.527-4.528-6.037-12.075-7.547-16.603-.843-2.531-1.687-4.874-2.268-9.11-.504-3.681-3.558-9.532-7.271-9.656-2.174-.071-4.348-1.46-5.555-.857a7.25 7.25 0 0 0-1.353.855c-5.871 4.776-8.84 12.58-9.32 19.96a5.758 5.758 0 0 0 1.224 3.238c1.89 2.401 5.725 7.343 7.94 10.663 3.018 4.528 0 15.095 3.018 18.113 3.02 3.02 25.661-12.075 21.133-16.603"/>
        <path fill="#555589" d="M221.756 287.698c.272-1.61-.743-1.986-2.987-3.622-2.243-1.636-2.316-2.326-3.745-5.14-1.43-2.812-7.213-13.571-9.44-16.827-2.225-3.255-4.287-4.206-6.458-6.147-1.198-1.071-1.27-.883-2.126-1.802.73-1.114 4.607-.06 5.168.033 2.763.455 12.251 5.72 12.973 5.295 1.866-1.1-1.824-2.326-1.968-4.975-.057-1.057-1.262-6.49-2.45-8.828-.392-.771-.76-1.148-2.588-2.679-1.828-1.53-3.305-1.854-7.533-1.526-4.227.327-12.798 3.477-17.024 5.682-4.228 2.204-4.671 4.232-4.7 7.242-.022 2.347 1.49 3.185 2.972 4.335 3.199 2.485 4.092 2.495 8.242 5.787 1.57 1.247 9.043 7.452 11.73 9.776 1.294 1.12 4.552 3.86 5.464 4.69 2.75 2.503 4.568 4.017 6.984 6.273.461.432.516.71-.198 1.038-.713.327-2.048 1.485-2.756 1.804-1.18.531-2.418 1.906-.65 2.373 1.545.504 10.82-1.172 11.09-2.782"/>
        <path fill="#FEFEFE" d="M247.413 300.837l.742-.13-3.428-19.715-.743.13z"/>
        <path fill="#FEFEFE" d="M247.339 301.336l.307-.69-18.274-8.154-.307.69z"/>
        <path fill="#FEFEFE" d="M230.467 312.509l16.22-11.722-.442-.61-16.221 11.721zM246.048 321.498l.8-19.995-.755-.03-.8 19.996z"/>
        <path fill="#FEFEFE" d="M264.066 312.382l.365-.66-17.498-9.705-.366.66zM266.71 307.801l.213-.725-19.205-5.62-.213.724zM247.187 301.027l15.391-12.788-.481-.58-15.392 12.786z"/>
        <path fill="#FEFEFE" d="M247.502 301.277l.707-.265-7-18.746-.706.265z"/>
        <path fill="#FEFEFE" d="M247.474 298.629l.037-.756-19.988-.96-.038.754zM232.59 315.386l12.13-15.916-.6-.457-12.13 15.917zM239.023 319.585l9.613-17.55-.662-.362-9.613 17.55z"/>
        <path fill="#FEFEFE" d="M251.142 321.361l.74-.15-4.026-19.6-.74.15zM247.315 300.994l19.883-2.269-.086-.748-19.882 2.268z"/>
        <path fill="#FEFEFE" d="M247.237 300.856l16.927-10.673-.403-.639-16.927 10.673z"/>
        <path fill="#FEFEFE" d="M247.356 274.591c-14.673 0-26.61 11.937-26.61 26.61 0 14.67 11.937 26.608 26.61 26.608s26.61-11.938 26.61-26.609c0-14.672-11.937-26.609-26.61-26.609m0 6.037c11.361 0 20.572 9.21 20.572 20.572 0 11.36-9.21 20.57-20.572 20.57-11.362 0-20.572-9.21-20.572-20.57 0-11.362 9.21-20.572 20.572-20.572"/>
        <path fill="#555589" d="M247.356 280.628c-11.362 0-20.572 9.21-20.572 20.572 0 11.361 9.21 20.571 20.572 20.571 11.361 0 20.572-9.21 20.572-20.571 0-11.362-9.21-20.572-20.572-20.572m0 .755c10.927 0 19.818 8.89 19.818 19.817s-8.89 19.817-19.818 19.817-19.818-8.89-19.818-19.817c0-10.928 8.89-19.817 19.818-19.817"/>
        <path fill="#555589" d="M247.356 296.914a4.286 4.286 0 1 0 0 8.571 4.286 4.286 0 0 0 0-8.571m0 1.51a2.78 2.78 0 0 1 2.777 2.776 2.78 2.78 0 0 1-2.777 2.776 2.78 2.78 0 0 1-2.777-2.776 2.78 2.78 0 0 1 2.777-2.777"/>
        <path fill="#FEFEFE" d="M136.538 297.613l.743-.13-3.427-19.715-.744.13z"/>
        <path fill="#FEFEFE" d="M136.464 298.113l.308-.69-18.274-8.155-.308.69z"/>
        <path fill="#FEFEFE" d="M119.592 309.284l16.22-11.72-.442-.612-16.22 11.722zM135.174 318.274l.799-19.995-.754-.03-.8 19.996z"/>
        <path fill="#FEFEFE" d="M153.192 309.158l.366-.66-17.5-9.705-.366.66zM155.836 304.578l.212-.725-19.205-5.621-.213.724zM136.313 297.803l15.39-12.787-.48-.58-15.392 12.786z"/>
        <path fill="#FEFEFE" d="M136.628 298.053l.707-.265-7-18.746-.707.265z"/>
        <path fill="#FEFEFE" d="M136.6 295.405l.036-.755-19.988-.96-.037.753zM121.717 312.163l12.13-15.917-.6-.457-12.13 15.917zM128.149 316.36l9.613-17.549-.662-.362-9.613 17.55z"/>
        <path fill="#FEFEFE" d="M140.267 318.137l.74-.15-4.025-19.6-.74.15zM136.441 297.77l19.883-2.269-.087-.748-19.881 2.269z"/>
        <path fill="#FEFEFE" d="M136.362 297.632l16.928-10.671-.402-.64-16.928 10.672z"/>
        <path fill="#FEFEFE" d="M136.482 271.367c-14.673 0-26.611 11.937-26.611 26.61 0 14.67 11.938 26.608 26.61 26.608 14.674 0 26.61-11.937 26.61-26.608 0-14.673-11.936-26.61-26.61-26.61m0 6.037c11.362 0 20.573 9.21 20.573 20.573 0 11.36-9.21 20.57-20.572 20.57-11.362 0-20.572-9.21-20.572-20.57 0-11.362 9.21-20.573 20.572-20.573"/>
        <path fill="#555589" d="M136.482 277.404c-11.362 0-20.572 9.211-20.572 20.572 0 11.361 9.21 20.571 20.572 20.571 11.361 0 20.572-9.21 20.572-20.57 0-11.362-9.21-20.573-20.572-20.573m0 .755c10.927 0 19.818 8.89 19.818 19.817s-8.89 19.817-19.818 19.817-19.818-8.89-19.818-19.817 8.89-19.817 19.818-19.817"/>
        <path fill="#555589" d="M136.482 293.69a4.287 4.287 0 1 0 0 8.573 4.287 4.287 0 0 0 0-8.573m0 1.51a2.78 2.78 0 0 1 2.777 2.776 2.779 2.779 0 0 1-2.777 2.776 2.779 2.779 0 0 1-2.777-2.776 2.78 2.78 0 0 1 2.777-2.776"/>
        <path fill="#F3DB78" d="M136.504 227.212l-5.109 24.325 21.305 9.932 10.226-21.94-26.422-12.317zm16.241 35.943l-22.53-10.504a.752.752 0 0 1-.42-.84l5.427-25.84a.754.754 0 0 1 1.058-.53l27.968 13.038a.754.754 0 0 1 .366 1.002l-10.865 23.309a.756.756 0 0 1-1.004.365z"/>
        <path fill="#F3DB78" d="M149.295 254.703a.376.376 0 0 0 .16-.719l-17.54-8.178a.377.377 0 1 0-.32.685l17.541 8.176a.382.382 0 0 0 .16.036M144.477 246.783a.377.377 0 0 0 .159-.72l-11.325-5.28a.383.383 0 0 0-.502.183.377.377 0 0 0 .184.501l11.324 5.28a.398.398 0 0 0 .16.036M148.98 243.207a.377.377 0 0 0 .16-.719l-15.21-7.09a.382.382 0 0 0-.502.183.377.377 0 0 0 .184.501l15.209 7.09a.395.395 0 0 0 .16.035"/>
        <path fill="#F3DB78" d="M134.64 254.096a.375.375 0 0 0 .368-.29l4.828-20.52a.377.377 0 0 0-.282-.453.372.372 0 0 0-.453.28l-4.828 20.519a.378.378 0 0 0 .368.464M139.197 252.438c.17 0 .324-.114.366-.287l4.156-17.05a.378.378 0 0 0-.277-.457.384.384 0 0 0-.456.277l-4.155 17.05a.38.38 0 0 0 .366.467"/>
        <path fill="#555589" d="M246.979 302.863l14.861-31.072-.68-.324-13.427 28.068V271.2h-.754z"/>
        <path fill="#555589" d="M230.348 271.954h39.723a.754.754 0 1 0 0-1.508h-39.723a.754.754 0 1 0 0 1.509"/>
        <path fill="#F49698" d="M135.012 299.46l1.138.557c.585.287 1.29.046 1.578-.538l30.704-62.6a1.178 1.178 0 0 0-.539-1.577l-1.138-.56a1.18 1.18 0 0 0-1.577.541l-30.705 62.6a1.178 1.178 0 0 0 .539 1.576M198.107 304.514l3.146 1.385 22.035-50.039-3.146-1.384z"/>
        <path fill="#F49698" d="M245.893 302.05l3.255-1.88-26.051-45.118-3.254 1.88zM196.595 300.479l2.118-3.228-47.609-31.232-2.117 3.227zM210.4 282.94c-.14-1.715-.31-1.918-.472-3.632-22.18.525-38.387-10.16-49.363-29.645-1.586.662-1.661 1.327-3.244 1.993 11.007 20.392 30.065 32.039 53.08 31.285"/>
        <path fill="#F49698" d="M247.224 296.752l-43.84-2.753c-4.43-.278-8.174 3.238-8.174 7.675 0 4.436 3.744 7.952 8.173 7.674l43.84-2.753a4.931 4.931 0 0 0 0-9.843"/>
        <path fill="#282460" d="M167.452 237.918c2.238-2.017 8.695.376 13.306 1.129a1.893 1.893 0 0 0 1.978-2.42l-.332-1.13a1.893 1.893 0 0 0-1.817-1.36h-12.975a1.894 1.894 0 0 0-.16 3.781"/>
        <path fill="#6D6EA5" d="M206.825 256.871h27.43v-5.143h-27.43z"/>
        <path fill="#FEFEFE" d="M236.443 300.506a.378.378 0 0 0 .03-.753l-29.015-2.342c-.202-.032-.39.136-.407.345a.377.377 0 0 0 .346.406l29.016 2.343h.03M214.975 304.201h.009l29.015-.675a.378.378 0 0 0 .368-.387c-.005-.209-.17-.396-.386-.369l-29.015.676a.378.378 0 0 0 .01.755"/>
        <path fill="#F49698" d="M199.88 164.96s-4.528-1.51-7.547 3.018c-3.02 4.529 0 9.057-3.02 12.075-3.018 3.018 3.02 0 6.04-3.018 3.018-3.019 4.527-12.075 4.527-12.075M224.162 169.382c3.174 2.207 4.603 5.163 5.816 7.957.442.355.983.637 1.705.798 2.288.512 1.21.877-.939.964 1.12 2.524 2.335 4.731 4.913 5.863 5.907 2.592-4.043 1.74-9.949-.852S212.191 169.4 212.191 169.4s5.134-4.774 11.971-.017"/>
        <path fill="#F49698" d="M195.352 167.978c-.16-.614 2.997-4.24 6.038-4.528 2.659-.251 5.657-.638 9.057 1.51 2.853 1.801 4.528 4.528 4.528 6.037 0 1.51 0 4.528-1.51 7.547s-6.037 4.528-6.037 4.528c-5.547-2.1-9.573-7.13-12.076-15.094"/>
        <path fill="#8284BF" d="M199.739 188.012c-.252 1.84.771 3.212.175 4.663-.417 1.013.52-1.657 1.521-1.954 1.234-.365.431.184-.562 1.551-.993 1.366-3.503 6.832-3.503 6.832s-4.414 9.92-6.963 15.104c-2.6 5.289-10.816 16.012-10.816 16.012s-.844 1.152-3.025 2.729c-2.416.755-5.793-.2-7.09 1.376-1.295 1.576.214 1.576-.128 1.631 1.852 1.455 4.187 1.16 5.238.907 1.068-.258 2.162-1.307 3.026-1.932 1.802-1.31 3.926-2.289 5.805-3.497 2.572-1.655 3.417-2.012 5.7-4.044 4.015-3.57 7.654-7.473 11.385-11.328 3.603-3.724 7.136-7.524 10.108-11.781 2.296-3.288 5.865-8.444 3.723-12.59a6.07 6.07 0 0 0-2.075-2.279c-.814-.531-1.809-.714-2.586-1.294-2.244-2.027-2.064-4.176-2.152-5.191-1.947-.905-3.809-2.073-4.51-4.219-.32-.977-.324-1.007.456-1.285.988-.353 1.586-.976 1.437-2.175-.163-1.299-.812-.875-1.742-1.09-.804-.184-.405-1.62-1.212-1.937-2.023-.795-5.118-2.007-6.596-4.29-1.618 1.878-2.384 4.058-2.318 6.532-.702 2.572-2.846 3.386-1.525 4.63.537.561.535.56.903.935-.147 1.817-.08 4.554 1.391 5.236 1.237.574 2.748.147 4.049-.034.428-.06 1.333-.336 1.74-.115.34.186.146 2.897.146 2.897M206.5 310.002c.331-.758.086-1.576.192-2.36-.008-.086.047-3.83.288-6.403.238-2.54 1.81-18.518 1.817-21.233.01-2.976-1.95-9.568-3.502-10.88-.812-.777-1.317-1.79-2.048-2.63.125-.526 4.037-2.919 4.44-3.033 1.663-1.202 11.756-3.613 11.948-3.633.033-.494-4.881-2.804-5.346-3.58-.294-.21-6.545-6.771-7.047-7.208-.22 0-2.865-1.85-4.158-2.373-1.65-.668-1.695-1.712-4.886.329-3.191 2.04-7.072 5.713-8.544 7.542-1.4 1.74-2.457 3.411-3.32 5.515-.672 1.641.04 4.59.37 5.342.715 1.625 2.754 5.94 3.907 8.283.436.886 5.424 11.865 6.284 14.347.684 1.062 2.414 6.236 2.795 7.295 1.15 3.192 1.96 6.474 2.625 9.795.127.635-.094 1.01-.76 1.084-1.093.123-2.185.256-3.278.376-1.19.13-1.815.591-2.011 1.5.32 1.25 10.027 2.25 10.234 1.925"/>
        <path fill="#26265E" d="M197.472 246.264c-.611.203-.753.706-.562 1.429 1.48-1.04 2.912-.53 4.307.04 1.66.678 7.648 6.344 7.731 6.457 1.118.844 3.604 3.52 7.08 5.445 3.476 1.925 8.16 3.6 14.12 2.008 5.96-1.591 15.974-7.078 19.27-7.353 3.294-.276 5.489-1.089 7.604-3.153.133-.13 2.556-3.15 2.928-4.573.463-1.763-.496-3.065-2.303-3.038-1.223.02-2.46.147-3.66-.1-2.714-.56-4.159-1.112-7.245-3.564-3.086-2.452-7.615-11.507-19.975-16.444-.433-.25-.748-.219-1.168.047-1.913 1.217-3.72 2.563-5.324 4.175-.232.233-9.449 8.574-9.593 8.676-1.42 1.014-2.894 1.934-4.584 2.423-.686.199-1.127.54-1.496 1.194-.494.872-6.52 6.128-7.13 6.33"/>
        <path fill="#282460" d="M210.965 293.582l11.768-3.328-.82-2.904-11.769 3.327zM195.073 311.079l12.097 1.802.445-2.986-12.097-1.802zM217.994 327.974H274.6a.754.754 0 1 0 0-1.508h-56.606a.753.753 0 1 0 0 1.508M107.802 324.956h56.605a.754.754 0 1 0 0-1.51h-56.605a.755.755 0 1 0 0 1.51M355.26 320.651l12.253-3.465-.855-3.024-12.254 3.465z"/>
        <path fill="#555589" d="M365.915 314.37c1.083-2.238-.956-2.392-2.53-4.08-1.572-1.69-2.112-1.976-3.6-5.524-1.488-3.55-5.481-13.362-7.106-17.147-1.624-3.787-6.47-7.646-7.196-8.744.638-1.168 18.436-5.183 19.752-6.239 3.4-2.728-6.458-15.7-8.286-16.06-1.828-.359-7.071 3.12-7.071 3.12l-16.342 11.587s-4.956 3.865-5.228 7.37c-.211 2.734 1.428 3.303 2.763 4.753 2.884 3.13 4.13 3.198 7.431 7.232 1.249 1.526 6.542 7.857 8.78 10.254 1.077 1.153 3.6 3.89 4.448 4.746 2.56 2.582 4.391 4.127 6.86 6.381.47.431.429.742-.26 1.156-.688.415-2.017 1.628-2.668 2.015-1.083.645-2.603 2.055-.38 2.393 2.222.34 9.549-.977 10.633-3.213"/>
        <path fill="#FEFEFE" d="M394.116 327.506l.774-.135-4.753-27.326-.773.136z"/>
        <path fill="#FEFEFE" d="M393.938 328.104l.321-.718-25.331-11.303-.321.718z"/>
        <path fill="#FEFEFE" d="M370.42 343.604l22.485-16.244-.46-.639-22.485 16.245zM391.965 356.164l1.109-27.715-.786-.03-1.11 27.714z"/>
        <path fill="#FEFEFE" d="M417.134 343.421l.38-.688-24.256-13.454-.38.688zM420.773 337.06l.221-.756-26.622-7.79-.22.754zM393.591 327.693l21.336-17.725-.503-.604-21.334 17.725z"/>
        <path fill="#FEFEFE" d="M394.232 328.094l.737-.276-9.702-25.983-.736.276z"/>
        <path fill="#FEFEFE" d="M394.078 324.34l.039-.785-27.707-1.332-.038.786zM373.338 347.618l16.814-22.06-.625-.476-16.813 22.06zM382.243 353.455l13.326-24.327-.689-.376-13.327 24.325z"/>
        <path fill="#FEFEFE" d="M399.284 355.955l.77-.157-5.58-27.169-.77.156zM393.837 327.619l27.56-3.143-.09-.78-27.558 3.143z"/>
        <path fill="#FEFEFE" d="M393.674 327.447l23.464-14.795-.42-.666-23.463 14.794z"/>
        <path fill="#FEFEFE" d="M393.909 296.376c-17.458 0-31.66 14.202-31.66 31.658 0 17.456 14.202 31.658 31.66 31.658 17.456 0 31.66-14.202 31.66-31.658 0-17.456-14.204-31.658-31.66-31.658m0 3.143c15.749 0 28.516 12.766 28.516 28.515 0 15.748-12.767 28.515-28.516 28.515-15.75 0-28.517-12.767-28.517-28.515 0-15.749 12.767-28.515 28.517-28.515"/>
        <path fill="#555589" d="M393.909 299.519c-15.75 0-28.517 12.766-28.517 28.515 0 15.747 12.767 28.514 28.517 28.514 15.749 0 28.516-12.767 28.516-28.514 0-15.749-12.767-28.515-28.516-28.515m0 .786c15.29 0 27.73 12.439 27.73 27.729s-12.44 27.729-27.73 27.729c-15.291 0-27.731-12.44-27.731-27.73 0-15.289 12.44-27.728 27.73-27.728"/>
        <path fill="#555589" d="M393.909 322.093a5.94 5.94 0 1 0 0 11.882 5.94 5.94 0 0 0 0-11.882m0 1.572c2.409 0 4.369 1.96 4.369 4.37a4.374 4.374 0 0 1-4.37 4.368 4.374 4.374 0 0 1-4.369-4.369c0-2.41 1.96-4.369 4.37-4.369"/>
        <path fill="#FEFEFE" d="M284.855 354.696l.774-.135-4.753-27.326-.773.136z"/>
        <path fill="#FEFEFE" d="M306.064 338.659l.32-.717-25.33-11.303-.321.717z"/>
        <path fill="#FEFEFE" d="M282.547 328.02l22.484-16.245-.46-.635-22.484 16.243zM282.704 326.324l1.109-27.716-.786-.03-1.11 27.715z"/>
        <path fill="#FEFEFE" d="M281.733 325.462l.381-.687-24.257-13.454-.38.687zM280.619 326.228l.22-.755-26.62-7.79-.222.755zM260.567 345.38l21.335-17.728-.503-.604-21.334 17.727z"/>
        <path fill="#FEFEFE" d="M289.725 352.908l.736-.276-9.702-25.985-.737.276z"/>
        <path fill="#FEFEFE" d="M308.58 332.52l.039-.786-27.706-1.333-.039.786zM285.465 329.66l16.812-22.061-.625-.476-16.812 22.061zM280.111 325.99l13.326-24.326-.689-.377-13.325 24.326z"/>
        <path fill="#FEFEFE" d="M280.517 326.115l.77-.156-5.58-27.17-.77.156zM253.684 331.046l27.56-3.143-.09-.78-27.56 3.143z"/>
        <path fill="#FEFEFE" d="M258.273 342.755l23.464-14.794-.419-.666-23.465 14.793z"/>
        <path fill="#FEFEFE" d="M281.083 295.051c-17.457 0-31.66 14.201-31.66 31.657s14.203 31.658 31.66 31.658 31.659-14.202 31.659-31.658c0-17.456-14.202-31.657-31.659-31.657m0 3.142c15.75 0 28.517 12.767 28.517 28.515 0 15.75-12.768 28.515-28.517 28.515-15.75 0-28.516-12.766-28.516-28.515 0-15.748 12.767-28.515 28.516-28.515"/>
        <path fill="#555589" d="M281.083 298.193c-15.75 0-28.516 12.767-28.516 28.515 0 15.749 12.767 28.514 28.516 28.514 15.75 0 28.517-12.765 28.517-28.514 0-15.748-12.768-28.515-28.517-28.515m0 .787c15.29 0 27.73 12.438 27.73 27.728 0 15.29-12.44 27.73-27.73 27.73-15.29 0-27.73-12.44-27.73-27.73 0-15.29 12.44-27.728 27.73-27.728"/>
        <path fill="#555589" d="M281.083 320.767a5.94 5.94 0 1 0 0 11.882 5.94 5.94 0 0 0 0-11.882m0 1.573c2.41 0 4.37 1.96 4.37 4.369a4.374 4.374 0 0 1-4.37 4.368c-2.41 0-4.37-1.96-4.37-4.368 0-2.41 1.96-4.37 4.37-4.37"/>
        <path fill="#282460" d="M371.818 264.03l3.274 1.443-7.258 16.483-3.275-1.442zM280.326 327.98l1.109.4a.982.982 0 0 0 1.257-.59l23.635-65.5a.982.982 0 0 0-.591-1.258l-1.108-.4a.983.983 0 0 0-1.259.59l-23.634 65.501a.981.981 0 0 0 .59 1.257"/>
        <path fill="#F49698" d="M342.778 330.48l2.806 1.237a.825.825 0 0 0 1.087-.422l22.027-50.007a.824.824 0 0 0-.423-1.086l-2.806-1.237a.825.825 0 0 0-1.087.421l-22.026 50.01a.824.824 0 0 0 .422 1.085"/>
        <path fill="#F49698" d="M395.465 328.789l.96-.686a.982.982 0 0 0 .226-1.37l-30.403-42.528a.983.983 0 0 0-1.37-.228l-.959.686a.984.984 0 0 0-.228 1.371l30.404 42.528a.982.982 0 0 0 1.37.227"/>
        <path fill="#F49698" d="M396.028 327.962l-.086-1.176a.982.982 0 0 0-1.05-.908l-48.45 3.515a.983.983 0 0 0-.91 1.051l.085 1.176c.04.54.51.947 1.051.907l48.451-3.515a.981.981 0 0 0 .909-1.05M363.828 287.366l.78-3.941-64.106-12.69-.78 3.942z"/>
        <path fill="#F49698" d="M344.494 331.176l3.134-2.516-45.07-56.151-3.134 2.514z"/>
        <path fill="#282460" d="M292.669 261.39c2.33-2.101 9.052.39 13.853 1.175a1.972 1.972 0 0 0 2.059-2.52l-.345-1.174a1.971 1.971 0 0 0-1.892-1.418h-13.508a1.971 1.971 0 0 0-.167 3.937"/>
        <path fill="#555589" d="M346.862 321.885a7.858 7.858 0 1 0 0 15.716 7.858 7.858 0 0 0 0-15.716m0 1.572a6.293 6.293 0 0 1 6.286 6.285 6.293 6.293 0 0 1-6.286 6.286 6.293 6.293 0 0 1-6.286-6.286 6.293 6.293 0 0 1 6.286-6.285"/>
        <path fill="#F49698" d="M295.171 283.664l2.885 1.04a1.179 1.179 0 0 0 1.509-.708l4.76-13.193a1.18 1.18 0 0 0-.71-1.509l-2.883-1.04a1.178 1.178 0 0 0-1.51.708l-4.759 13.193a1.178 1.178 0 0 0 .708 1.509"/>
        <path fill="#26265E" d="M334.453 277.734c1.06-2.23 2.525-3.437 4.148-5.268 1.624-1.831 6.45-5.71 6.45-5.71s28.528-17.16 31.672-28.161c0 0 10.605 6.437 12.572 11.001 1.537 3.566 3.1 14.255-4.714 18.858-7.292 4.296-13.273 5.846-22.08 10.35-2.67 1.61-12.21 5.187-12.614 6.215.505 1.897 1.238 3.395 2.01 5.498 1.4 3.808 2.191 8.17 1.49 12.825-.702 4.656-1.264 15.86-1.905 19.253-.64 3.393-.738 7.188-.848 7.513-1.017 2.995.835 3.332-1.61 4.37-2.443 1.037-7.271-.786-8.893-2.947-1.167-1.555.714-1.33 1.655-1.438.941-.11 2.285.127 3.119.007.835-.12 1.074-.224.973-1.028-.523-4.204-1.247-7.543-2.213-12.037-.32-1.49-1.58-5.964-2.04-7.71-.96-3.627-3.494-12.28-4.095-14.41-1.59-5.628-2.346-7.451-3.454-11.932-.513-2.074-.451-3.508.377-5.249"/>
        <path fill="#47BFB3" d="M315.904 185.536c.007-.015-.038-.028-.04-.016-.003.014.034.03.04.016M315.857 185.518l-.01-.004.01.004M317.682 180.143c.008-.014-.036-.03-.04-.018-.003.012.033.033.04.018M317.636 180.122l-.007-.003.007.003M337.65 188.727c-.075-2.212-2.039-3.529-3.866-4.235-1.827-.707-3.42-.582-5.107-.94-1.688-.358-2.626-.985-3.874-2.031-.206-.172-.447-.517-.607-.656-1.856-1.607-4.325-2.225-6.242-.71-1.916 1.514-2.21 3.13-1.906 5.339.303 2.21 1.81 3.625 3.357 5.041-.208 1.959 1.032 1.637.475 4.076-.932 4.084 10.142 9.826 11.537 9.6 7.012-1.141 7.243-7.046 8.18-11.143.935-4.097-1.264-1.567-1.947-4.341"/>
        <path fill="#8284BF" d="M339.02 208.304c-2.454-1.293-3.165-2.609-5.12-4.825-.042-.046-3.061-1.454-3.699-2.008-.638-.554-2.142-1.646-1.783-2.657.359-1.01 1.257-1.36 1.011-2.286-1.03-3.885-2.603.152-2.83.799-.77 2.191-1.897-3.026-1.8-3.939.176-1.632-4.908-3.295-5.423-2.84-1.774 1.565-.977 3.99-1.744 4.656-1.157 1.91-2.791 3.672-1.339 5.18.562.582 1.008.406 1.04 1.274.071 1.899.518 4.166 2.115 5.12 1.599.957 3.765.309 4.975.102 1.21-.207 1.104-.563 2.011-.089.908.475.88 1.557 1.43 2.597.547 1.04 1.864 3.089 2.262 4.221M312.042 247.212c-2.646 2.53-5.037 4.726-8.725 5.401-1.86.342-4.392 1.712-5.757 2.651-1.364.94-.914 2.382-.914 2.382s3.022 1.892 4.933 1.302c1.91-.59 2.875-1.96 4.89-2.932 4.206-2.03 9.13-4.181 13.368-6.43"/>
        <path fill="#F7F4EC" d="M337.433 205.594c1.652.726 11.027 7.183 12.802 10.252 2.2 3.807 3.41 5.277 5.752 8.564 4.19 5.881 14.163 9.539 18.23 16.364 4.065 6.825-14.782 19.823-17.084 16.38-2.304-3.443-11.842-13.845-14.658-16.4-2.177-1.976-9.653-10.016-9.757-10.016-3.143 0-3.143-17.286-3.143-17.286 2.245-2.858 4.817-5.508 7.858-7.858"/>
        <path fill="#26265E" d="M330.711 217.89c2.363-4.008 3.508-7.515 6.747-9.358 3.24-1.843 5.366-1.275 8.092 2.692 2.727 3.967-.677 13.531-4.74 17.67-4.064 4.138-6.148 9.608-10.364 14.013-4.216 4.403-13.654 9.939-15.907 11.457-2.252 1.519-4.237 1.78-5.507 2.792-.969-2.536-1.684-5.017-2.096-7.668 6.023-4.52 16.44-11.466 17.968-14.323 1.527-2.855 3.444-13.268 5.807-17.275"/>
        <path fill="#26265E" d="M340.48 208.872c8.836 2.271 16.86 9.97 23.242 16.103 10.054 2.063 18.475 4.883 28.33 7.636-1.01 8.237-7.346 13.238-12.15 19.61-9.054-3.774-19.66-7.038-28.099-11.68-8.439-4.64-13.728-12.582-20.568-18.87 3.124-4.332 6.086-8.575 9.246-12.8"/>
        <path fill="#8284BF" d="M379.936 252.194c-9.65-3.221-19.024-7.429-28.347-11.49 8.333 1.159 16.734 2.013 25.153 2.092 1.272 3.217 2.557 5.917 3.194 9.398"/>
        <path fill="#F27576" d="M329.594 215.379c.87-1.45 4.546-6.521 7.33-7.752 2.783-1.23 7.375-.31 9.627-2.057 2.252-1.748 4.22-5.085 7.063-5.584.997.099 2.079.215 3.111.316-.065.54-.103 2.585-.188 3.165-3.566 1.48-6.72 3.965-10.217 5.119-3.497 1.154-8.246.54-10.804 2.502-2.558 1.962-4.482 4.45-5.341 6.312-.86 1.86-1.452-.573-.58-2.021"/>
        <path fill="#282460" d="M337.143 335.724l12.594 1.876.463-3.109-12.595-1.876zM364.15 361.172h58.934a.785.785 0 1 0 0-1.571H364.15a.786.786 0 1 0 0 1.571M249.423 359.601h58.935a.785.785 0 1 0 0-1.571h-58.935a.786.786 0 1 0 0 1.571"/>
        <path fill="#B2E0E3" d="M442.67 355.76c-4.127 10.72-8.592 26.736-8.592 26.736s24.453-23.113 29.822-30.08c5.369-6.97 18.352-22.752 13.908-24.643-4.94-2.102-15.932 5.341-24.016 12.618-5.31 4.782-9.043 9.973-11.122 15.37"/>
        <path stroke="#FEFEFE" stroke-linecap="round" stroke-linejoin="round" stroke-width="2" d="M432.965 383.2c17.505-18.716 13.33-39.223 44.75-55.229"/>
        <path fill="#B2E0E3" d="M422.15 330.18c-1.915 24.08 11.405 52.33 11.405 52.33-.822-.442 11.309-40.688 15.921-51.085 4.85-10.929 14.573-37.793 3.13-39.631-11.443-1.84-29.582 27.374-30.457 38.386"/>
        <path stroke="#FEFEFE" stroke-linecap="round" stroke-linejoin="round" stroke-width="2" d="M432.971 383.373c-5.627-33.146 1.314-74.159 19.497-91.398"/>
        <path fill="#B2E0E3" d="M442.68 374.057c-5.686 4.996-9.444 10.057-9.444 10.057s12.816-6.447 24.137-9.199c4.595-1.116 9.079-2.352 13.26-3.836 6.344-2.252 12.64-4.967 10.054-6.922-1.704-1.29-6.4-1.202-11.633-.5-11.146 1.494-20.574 5.303-26.374 10.4"/>
        <path stroke="#FEFEFE" stroke-linecap="round" stroke-linejoin="round" stroke-width="2" d="M432.619 384.218c12.168-9.996 32.935-19.378 47.933-20.042"/>
        <path fill="#E4F3F5" d="M421.472 340.837c13.083 14.55 8.898 41.518 8.898 41.518s-20.343-28.559-28.073-37.223c-7.73-8.664-31.166-28.082-22.036-30.63 9.131-2.548 33.668 16.917 41.211 26.335"/>
        <path stroke="#FEFEFE" stroke-linecap="round" stroke-linejoin="round" stroke-width="2" d="M431.496 383.258c-7.509-31.64-25.03-53.537-51.555-68.701"/>
        <path fill="#B2E0E3" d="M415.428 353.256c6.976 10.138 12.377 20.373 17.373 30.364-9.806-6.586-29.684-18.35-35.646-24.495-5.963-6.147-28.156-20.85-18.51-26.678 9.646-5.828 33.554 16.453 36.783 20.81"/>
        <path stroke="#FEFEFE" stroke-linecap="round" stroke-linejoin="round" stroke-width="2" d="M434.315 384.315c-15.732-16.8-28.588-35.41-56.886-52.434"/>
        <path fill="#E4F3F5" d="M421.362 370.337c3.603 4.574 7.513 8.928 11.188 13.126-7.593-4.25-13.269-7.632-21.917-11.363-3.51-1.514-9.965-4.115-14.501-6.184-4.536-2.067-12.247-6.017-4.931-9.177 12.512-3.609 26.558 9.024 30.161 13.598"/>
        <path stroke="#FEFEFE" stroke-linecap="round" stroke-linejoin="round" stroke-width="2" d="M433.173 383.565c-9.194-7.729-27.298-22.357-42.148-26.938"/>
    </g>
</svg>
