<svg xmlns="http://www.w3.org/2000/svg" width="300" height="200" viewBox="0 0 300 200">
    <defs>
        <linearGradient id="a" x1="5.877%" x2="83.895%" y1="90.263%" y2="12.622%">
            <stop offset="0%" stop-color="#F7F4ED"/>
            <stop offset="100%" stop-color="#F7F4ED" stop-opacity="0"/>
        </linearGradient>
    </defs>
    <g fill="none" fill-rule="evenodd">
        <path fill="#555589" fill-rule="nonzero" d="M206.71 183.29s12 1.85 9.36 3.12c-1.16.56-1.81 1.47-2.14 4.16h14.93c2.17-5.58 4-10.9 2.81-15.6-1-3.12-3.12-6.24-9.36-6.24-6.24 0-29.12-1-30.16 0-1.04 1 14.56 14.56 14.56 14.56zM213 135s0-9.36-2.08-13.52a75.23 75.23 0 0 0-4.16-7.28l-1-2.08h4.16a28.45 28.45 0 0 1 4.16 5.2c1 2.08-1 4.16 0 6.24s6.24 10.4 6.24 10.4S215 136 213 135z"/>
        <path fill="#6D6EA5" fill-rule="nonzero" d="M197.35 119.39c2-2 3.26-4 3.12-6.24.1-2-1.28-3.7-2-5.22-.53-1.14-.23-2.17-1.14-3.1l9.36-4.16s1 0 3.12 2.08 6.24 7.28 2.08 9.36c-4.16 2.08-4.16 1-5.2 2.08s-1 3.12 0 8.32a20.73 20.73 0 0 1-1 10.4l-8.34-13.52z"/>
        <path fill="#1E1E63" fill-rule="nonzero" d="M207.75 97.55c-2.08-1-5.1.23-7.28 1-2.73 1-4.77 2-6.24 6.24-2 4.21-3.77 4.83-5.3 6.92a3 3 0 0 0 .29 4c-2.63 2.91-7.45 4.74-9.83 7.71-3.2 4-.8 11.2 0 12 .8.8 0 1.6-.8 3.2s0 8.8 9.6 4.8c5.79-.07 9.2-23.1 12.28-27.17 2.11-2.78 2.08-4.16 2.08-5.2s-.33-1.29-.92-1.34a2.08 2.08 0 0 1-2.38-1.78c-.17-1 .18-2.08 1.22-2.08s2.08 2.08 2.08 2.08c-1.04-3.1 8.32-7.26 5.2-10.38z"/>
        <path fill="#00BFAC" fill-rule="nonzero" d="M206.93 127.26c.21 3.72-1.26 2.53-2.3.45-1.04-2.08-2.64-6.56-4.16-8.32-2.17-2.52-7-1.49-5.08-.75l-3.24 52.75s9.36-1 10.4-2.08c1.04-1.08 1.18-1.21.59-2.17s-1.74-.95-2.72-3c-.98-2.05 7.33-32.24 7.33-32.24l-.82-4.64z"/>
        <path fill="#F7F4ED" fill-rule="nonzero" d="M192 119a7 7 0 0 1 3.54-1.23h1.75a.57.57 0 0 1 .54.48 154.4 154.4 0 0 1 1.56 23.86c0 6.24-7.28 25-1 27s16.07 13.85 16.07 13.85l-2.55 2.79h-32.24l-8.32-11.44s1-7.28 3.12-10.4 6.24-12.48 7.28-17.68c1.04-5.2 3.12-8.32 4.16-11.44 1.04-3.12 2.09-10.31 3.09-12.39a6.36 6.36 0 0 1 3-3.4z"/>
        <path fill="#F7F4ED" fill-rule="nonzero" d="M211.91 134c1-.33 9.36-1 10.4 0 1.04 1 0 3.12 0 4.16s3.12 7.28 3.12 10.4-1 7.28-6.24 8.32-15.6-3.12-16.64-5.2c-1.04-2.08-1-7.28 0-11.44 1-4.16 1.66-3.87 3.12-8.32 2.08-4.16 1-9.36 1-9.36s1 0 2.08 2.08 1 17.68 2.08 19.76l1 2.08s1-5.2 0-6.24.29-2.51 0-3.12c-.29-.61-1.59-2.61.08-3.12z"/>
        <path fill="#555589" fill-rule="nonzero" d="M207.75 160s12.76-6 16.26-6.1c3.5-.1 8.7.9 11.82.9 3.12 0 0-3.12-4.16-4.16s-10.4 0-17.68 2.08c-7.28 2.08-10.4 1-10.4 1l4.16 6.28z"/>
        <path fill="#F7F4ED" fill-rule="nonzero" d="M208.79 152.67c-1-2.08-8.32-1-9.36-2.08-1.04-1.08-1-8-1.54-13.85s-.54-18.39-.54-18.39-2.79-.74-6 1.24c-6.18 3.83-7.53 24.76-6.49 28.92s1.89 13.19 8.32 14.56c6.24 1.33 12.48.27 14.56-1 1.63-2.58 2.12-5.64 1.05-9.4z"/>
        <path fill="#03D4BF" fill-rule="nonzero" d="M183.83 150.59c1 4.16 1.89 13.19 8.32 14.56 1.27.262 2.556.44 3.85.53a13.72 13.72 0 0 1-.13-2.19 25.24 25.24 0 0 1-2.68-.42c-6.43-1.37-7.28-10.4-8.32-14.56-.42-1.69-.45-6.16.09-11.12-.34.77-.71 1.57-1.08 2.43-.5 4.82-.46 9.12-.05 10.77z" opacity=".2"/>
        <path fill="#F7F4ED" fill-rule="nonzero" d="M252.12 100.379l4.484 1.342-12.829 42.84-4.483-1.342z"/>
        <path fill="#E6E6E6" fill-rule="nonzero" d="M243.53 144.49l12.83-42.84c2.2.65 2 7.95 1.3 10.16l-6 19.87-1.81 6c-.6 2.23-4.12 7.47-6.32 6.81z"/>
        <path stroke="#E6E6E6" stroke-width="4" d="M222.31 153.95h20.64M250.47 130c2.08 7.28 10.4 11.44 14.56 13.52s6.72 9.36-.56 10.4h-14"/>
        <path stroke="#CCC" stroke-width="4" d="M211.91 164.11v-7.28h61.76"/>
        <path fill="#CCC" fill-rule="nonzero" d="M158.87 132.91c-3.12 0-3.12 3.12-2.08 9.36 1.04 6.24 4.16 22.88 7.28 33.28 3.12 10.4 8.32 14.56 16.64 15.6 8.32 1.04 26 0 33.28 0 5.2 0 6.24-2.08 4.16-5.2s-7.28-4.16-11.44-4.16c-4.16 0-20.8 2.08-26 0-5.2-2.08-6.24-6.24-8.32-12.48s-6.24-21.84-8.32-29.12c-2.08-7.28-2.07-7.28-5.2-7.28z"/>
        <path stroke="#E4F8F9" stroke-dasharray="12" stroke-width="4" d="M61.79 51.84s17-28 70.81-28 80.33 25.6 93.59 58.4"/>
        <path fill="#AEEDED" fill-rule="nonzero" d="M67 23.84c6.76 2.1 13.58 4.28 17.5 2.74 2.61 10.66 5.22 21.42 10.9 24.6-8.08 4.65-16.13 5.2-21.32-2.18-5.19-7.38-7.54-15.13-7.08-25.16z"/>
        <path fill="#E4F8F9" fill-rule="nonzero" d="M67 23.84c6.76 2.1 13.58 4.28 17.5 2.74 2.61 10.66 5.22 21.42 10.9 24.6C84.45 58.33 77 53 77.91 47.9c-5.2-.82-11.58-13.78-10.91-24.06z"/>
        <path fill="#AEEDED" fill-rule="nonzero" d="M235.4 57.74c-6.79-1-13.68-1.86-16.41-4.89-6.94 8.49-13.88 17.05-20.22 17.56 5 7.58 11.78 11.46 19.51 7 7.73-4.46 13.14-10.41 17.12-19.67z"/>
        <path fill="#E4F8F9" fill-rule="nonzero" d="M235.4 57.74c-6.79-1-13.68-1.86-16.41-4.89-6.94 8.49-13.88 17.05-20.22 17.56 6.42 11 15.22 9.34 16.65 4.4 4.88 1.44 16.07-7.55 19.98-17.07z"/>
        <path fill="#AEEDED" fill-rule="nonzero" d="M103 13.44c6 1.43 12.47 3 16.09.65 3.4 12.07 6.57 23.43 12.24 26.68-7.47 4.52-15.72 4-20 .25-1.98-1.69-7.28-16.81-8.33-27.58z"/>
        <path fill="#E4F8F9" fill-rule="nonzero" d="M103 13.44c6 1.43 12.47 3 16.09.65 3.4 12.07 6.57 23.43 12.24 26.68-9.86 6.77-17.82 2.47-19.38-.8-3.62-2.63-7.22-15.86-8.95-26.53z"/>
        <path fill="#AEEDED" fill-rule="nonzero" d="M203 23.84c-5.88 1.43-12.14 3-15.66.65-3.31 12.07-6.39 23.43-11.92 26.68 7.27 4.52 15.3 4 19.46.25 1.88-1.69 7.04-16.81 8.12-27.58z"/>
        <path fill="#E4F8F9" fill-rule="nonzero" d="M203 23.84c-5.88 1.43-12.14 3-15.66.65-3.31 12.07-6.39 23.43-11.92 26.68 9.6 6.77 17.35 2.47 18.86-.8 3.47-2.63 6.98-15.86 8.72-26.53zM151.46 9.62c5 3.14 10.24 6.5 14.4 7.23-1.88 12.4-5.67 22.59-4.65 29.35a20 20 0 0 1-17-8.36c-.54-1.84 4.28-18.37 7.25-28.22z"/>
        <path fill="#F7F4ED" fill-rule="nonzero" d="M76.51 119.36c3.49-1.77 7.37-6.42 11.69-4.83 4.32 1.59-.9 10.89-2.34 13.6-2.62.91-3.84 4.17-7 2.81-3.16-1.36-3.07-8.36-2.35-11.58z"/>
        <path fill="#6D6EA5" fill-rule="nonzero" d="M76.54 119.22a46.22 46.22 0 0 0-12.89 3.54c.68-5.06-3.85-13.78-5.36-17.19-1.89-4.32 1.71-8.57-.94-10.5-2.65-1.93-6.32-1-6.9 2.35-.76 4.52 3.06 4.65 3.29 11.1.21 6 .73 18.06 2.41 25.78a1.83 1.83 0 0 0 2 1.43c7.19-.91 14.12-3 21.1-5a41.38 41.38 0 0 1-2.71-11.51z"/>
        <path fill="#1E1E63" fill-rule="nonzero" d="M75.25 81.6c3.63.91 7.92-1.1 11.2-1.36a9.5 9.5 0 0 1 8.64 3.51c2 2.42 1.8 4.38 1.75 7.21-.05 2.83-2.06 4-2.4 6.77-4.13-3.26-8.52-5.46-13-7.79s-5.63-3.43-6.19-8.34z"/>
        <path fill="#6D6EA5" fill-rule="nonzero" d="M84.29 103.4c-1.14-5.5-2.58-8.79-4.4-14.11A35.58 35.58 0 0 0 90 86.58a10.85 10.85 0 0 0 1.34 5.09c.38-1.08 1.11-2.86 2.52-2.13s.86 2.81.52 3.95c-.34 1.14-.84 1.37-1.85 1.63 1.43 2.31 1.77 1.16 2 4.2.2 2.35 2.29 6.11 3.7 8.33-4.78 4.69-9.45 10-15.62 12.68.61-6.78 6.27-12.56 7.48-19-1.9.67-3.87 1.32-5.8 2.07z"/>
        <path fill="#F7F4ED" fill-rule="nonzero" d="M98.17 107.71a49.13 49.13 0 0 1 5.61 23.29 149.1 149.1 0 0 0 3 27.68c-9.13 2.78-17.33 4.27-26.84 2.91-1.47-6.53-3.52-17.15-1.67-22.82 1.85-5.67.55-7.4 1.46-11.77.91-4.37 1.29-6.57 4.72-10.14 3.43-3.57 9.55-5.42 13.72-9.15z"/>
        <path fill="#1E1E63" fill-rule="nonzero" d="M60.45 139.36l-3 3.5a1 1 0 0 1-1.52-.17L48.41 133a1 1 0 0 1 .21-1.52l4.15-2.06a1.22 1.22 0 0 1 1.37.48l6.19 8c.357.407.406 1 .12 1.46z"/>
        <path fill="#03D4BF" fill-rule="nonzero" d="M59.09 138.21l-2.6 2.68a.46.46 0 0 1-.7-.1l-5.57-7.19a.46.46 0 0 1 .07-.7l3.25-1.85a.55.55 0 0 1 .65.21l4.86 6.27a.55.55 0 0 1 .04.68z"/>
        <path fill="url(#a)" fill-rule="nonzero" d="M49.99 133.31l37.44-57.2 25.52 21.98-56.72 43.54z" opacity=".2"/>
        <path fill="#6D6EA5" fill-rule="nonzero" d="M82.29 129.67a37.25 37.25 0 0 0-1.41 12.43c-5.53-2.9-14.94-2.15-20.12-2.16-6.54 0-6.61-1.43-11.39-5.55 1 2.67-2.62 5.32 1.29 8.16 3.49 2.52 5.1-.06 11.28 3.54 5.71 3.33 18 8.79 26.56 10.52a1.73 1.73 0 0 0 2-1.19c2.34-7.85 3.6-16 5.1-24.07a44.33 44.33 0 0 1-13.31-1.68z"/>
        <path fill="#F4DC78" fill-rule="nonzero" d="M62.47 99.49H45.8a1.58 1.58 0 0 1-1.36-.78 1.6 1.6 0 0 1 0-1.56l8.34-14.44a1.57 1.57 0 0 1 1.35-.78 1.55 1.55 0 0 1 1.35.78l8.34 14.44a1.56 1.56 0 0 1-1.35 2.34zm-14-3.12h2.26a5.54 5.54 0 0 0 7.49 0h1.52l-5.64-9.76-5.63 9.76z"/>
        <path fill="#CCC" fill-rule="nonzero" d="M52.59 89.63h3.12c0-6.24 1-20.8 1-26h-3.08c0 5.2-1.04 19.76-1.04 26z"/>
        <path fill="#F2F2F2" fill-rule="nonzero" d="M28.19 63.63h86.4v5.2h-86.4z"/>
        <path fill="#E6E6E6" fill-rule="nonzero" d="M55.71 89.63h-3.12c0-6.24-1-20.8-1-26h3.12c-.04 5.2 1 19.76 1 26z"/>
        <path fill="#1E1E63" fill-rule="nonzero" d="M101.83 190.64c.54-2.52.24-3.06 1.43-6 3.23-7.82 5.46-16.46 2.1-25.5-8.12.94-16.34.74-24.44 2.09.29 12.83 1.72 17.52 3.22 29.37l17.69.04z"/>
    </g>
</svg>
