<svg xmlns="http://www.w3.org/2000/svg" width="300" height="200" viewBox="0 0 300 200">
    <g fill="none" fill-rule="nonzero">
        <ellipse cx="153" cy="164" fill="#1E1E63" opacity=".2" rx="107" ry="4"/>
        <path fill="#78DDD8" d="M105.4 157.26h17.2v2.24a2.76 2.76 0 0 1-2.76 2.76h-11.67a2.76 2.76 0 0 1-2.76-2.76v-2.24h-.01zM176.4 157.26h17.2v2.24a2.76 2.76 0 0 1-2.76 2.76h-11.67a2.76 2.76 0 0 1-2.76-2.76v-2.24h-.01z"/>
        <rect width="125" height="125" x="87" y="33" fill="#D0F4F4" rx="9.89"/>
        <rect width="95" height="95" x="102" y="48" fill="#9EE8E6" rx="5.39"/>
        <rect width="5.53" height="20" x="99" y="60.5" fill="#78DDD8" rx="2.76"/>
        <rect width="5.53" height="20" x="99" y="110.5" fill="#78DDD8" rx="2.76"/>
        <rect width="75" height="40" x="112" y="75.5" fill="#E4F8F9" rx="4"/>
        <rect width="23" height="23" x="119.694" y="83.997" fill="#AEEDED" rx="11.5" transform="rotate(45 131.194 95.497)"/>
        <path fill="#78DDD8" d="M127.65 101.7l9.74-9.7a13.3 13.3 0 0 1 2.49-2l.86-.51a6.43 6.43 0 0 0-1.42-2.12A6.58 6.58 0 0 0 137.2 86l-.51.86a13 13 0 0 1-1.95 2.49l-9.74 9.7a13.63 13.63 0 0 1-2.49 2l-.86.51a6.55 6.55 0 0 0 1.41 2.12 6.69 6.69 0 0 0 2.12 1.42l.52-.86a12.24 12.24 0 0 1 1.95-2.54z"/>
        <rect width="4.8" height="4.8" x="160.09" y="82.3" fill="#9EE8E6" rx="1"/>
        <rect width="4.8" height="4.8" x="167.29" y="82.3" fill="#9EE8E6" rx="1"/>
        <rect width="4.8" height="4.8" x="174.49" y="82.3" fill="#9EE8E6" rx="1"/>
        <rect width="4.8" height="4.8" x="160.09" y="89.5" fill="#9EE8E6" rx="1"/>
        <rect width="4.8" height="4.8" x="167.29" y="89.5" fill="#9EE8E6" rx="1"/>
        <rect width="4.8" height="4.8" x="174.49" y="89.5" fill="#9EE8E6" rx="1"/>
        <rect width="4.8" height="4.8" x="160.09" y="96.7" fill="#9EE8E6" rx="1"/>
        <rect width="4.8" height="4.8" x="167.29" y="96.7" fill="#9EE8E6" rx="1"/>
        <rect width="4.8" height="4.8" x="174.49" y="96.7" fill="#9EE8E6" rx="1"/>
        <rect width="4.8" height="4.8" x="160.09" y="103.9" fill="#9EE8E6" rx="1"/>
        <rect width="4.8" height="4.8" x="167.29" y="103.9" fill="#86E2A5" rx="1"/>
        <rect width="4.8" height="4.8" x="174.49" y="103.9" fill="#EDB7DC" rx="1"/>
        <path fill="#AEEDED" d="M256.32 63.29c-6.59-.92-13.26-1.79-15.92-4.74-6.72 8.24-13.45 16.54-19.6 17 4.86 7.36 11.42 11.11 18.92 6.78 7.5-4.33 12.74-10.1 16.6-19.04z"/>
        <path fill="#E4F8F9" d="M256.32 63.29c-6.59-.92-13.26-1.79-15.92-4.74-6.72 8.24-13.45 16.54-19.6 17 6.2 10.74 14.76 9.09 16.2 4.3 4.68 1.4 15.53-7.32 19.32-16.56z"/>
        <path fill="#03D4BF" d="M74.65 37.55c-9.71-1.47-9.59 6.78-15.5 7.86s-7.74 6.92-8.33 9.8c-1 5 2.42 9.47 5 9.47s3-4.3 5.39-6c2.39-1.7 9.51-.45 11.51-.45a10.41 10.41 0 0 0 10.2-12.49 10.22 10.22 0 0 0-8.27-8.19z"/>
        <path fill="#6D6EA5" d="M80.54 60.78a18.77 18.77 0 0 1-3.08-2.32 2.55 2.55 0 0 1-.88-1.85c0-1.22-.06-2.43-.07-3.65l-5.17.04c0 1.3 0 2.61.08 3.92A2.48 2.48 0 0 1 70 59.25a11.75 11.75 0 0 1-2.81.87l9.45 4.56s6.5-2.6 3.9-3.9z"/>
        <path fill="#F4EBD9" d="M83.41 60.81l-4.53-1.22a5.94 5.94 0 0 1-9.68 0c-1.73.47-3.52.94-5.08 1.35A9.05 9.05 0 0 0 58 66.39c-1.92 4.92-4.76 12.61-4.76 15.19 0 3.9 1.3 6.5 3.9 7.8a9.3 9.3 0 0 0 3.51.71 12.7 12.7 0 0 0-.76 4.21c.17 3.74-1 4.83 2.71 6.58s15 .69 18.56.31c5.32-.58 3.81-.06 4.9-5.27.33-1.62.4-6.11.58-10 1-1.58 1.21-3.68 1.35-6.48.18-3.33.41-7.82.44-12a6.74 6.74 0 0 0-5.02-6.63z"/>
        <path fill="#1E1E63" d="M85.09 98.48h-14.3c-1.93 10 0 19.5 0 27.3 0 7.8 2.6 13 2.6 32.28 0 1.07-1.3 1.87-1.3 4.27 0 2.4 3.92 2.1 6.5 0 1-1-1.3-2.8-1.3-4.1 0-2.6 2.62-12.14 2.77-15.07.16-3.37-.17.77.4-8.53.57-9.3 4.65-25.78 4.63-36.15z"/>
        <path fill="#1E1E63" d="M66.2 143.28c-1.91-1.9-12.61-12.9-13.61-14.9-1.3-2.6-1.3-3.9-1.3-6.5s7.8-20.8 10.4-23.4c2.6-2.6 14.56 0 14.56 0l-1.56 7.81a72.48 72.48 0 0 1-10.4 18.2c3.9 5.2 6.53 18.52 8.56 20.3 2.72 2.4 4.42 1.87 2.69 4.11-1.19 1.55-2.57 4.68-4 6.33-1 1.21-3.59 1.09-4.75.73-1.16-.36-1.16-.89-.78-2 .18-.53 2.15-.34 2.88-1.18.73-.84 1-2.09.79-4.12-.21-2.03-1.56-3.48-3.48-5.38z"/>
        <path fill="#E0C553" d="M70.14 79a35.2 35.2 0 0 1 10.76 1.65c-.57-.93-5.56-3-9.46-3h-4.57a.63.63 0 0 1-.63-.63v-3.24a5.47 5.47 0 0 0-1.31-3.36 73.37 73.37 0 0 1-1.29 9.86 26.45 26.45 0 0 1 6.5-1.28zM83.29 88.56a27.18 27.18 0 0 1-9.5 1.8 9.49 9.49 0 0 1-3.36-.36 6.34 6.34 0 0 0 3.82.88c2.78-.13 6 .68 9.38-.94a9.29 9.29 0 0 0 2.93-2.17c0-.63 0-1.26.08-1.87a6.5 6.5 0 0 1-3.35 2.66z"/>
        <path fill="#F4DC78" d="M79.24 80.28l-.08.41c.11-.21.15-.36.08-.41z"/>
        <path fill="#E0C553" d="M68.84 89.38c3.13-.64 9.41-7 10.32-8.69l.08-.41s-6.5 5.2-9.1 6.5a63.21 63.21 0 0 1-9.49 3.31 36.85 36.85 0 0 0 8.19-.71z"/>
        <path fill="#6D6EA5" d="M76.84 43.12c-1.78 2.06-3.11 3.36-6 3.36a2 2 0 0 0-2 2.23v2.35a4.24 4.24 0 0 0 2.82 4 7.2 7.2 0 0 0 2.34.54 7.19 7.19 0 0 0 2.39-.6 4.26 4.26 0 0 0 2.75-4v-3.92a2.21 2.21 0 0 0-.83-1.71 4.61 4.61 0 0 1-1.47-2.25z"/>
    </g>
</svg>
