<svg xmlns="http://www.w3.org/2000/svg" xmlns:xlink="http://www.w3.org/1999/xlink" width="279" height="203" viewBox="0 0 279 203">
    <defs>
        <path id="a" d="M.082.021h3.505v57.95H.082z"/>
        <path id="c" d="M.129 0h20.82v44.968H.129z"/>
        <path id="e" d="M.083.021h3.505v57.95H.083z"/>
        <path id="g" d="M.083 0h3.505v44.968H.083z"/>
        <path id="i" d="M.129 0h20.82v44.968H.129z"/>
        <path id="k" d="M3.22.383L.014 3.207v27.766h26.933V3.207L23.74.383z"/>
        <path id="m" d="M3.648.383a.95.95 0 0 0-.633.241L.443 2.926a.94.94 0 0 0-.313.7v26.406c0 .52.424.941.947.941h24.605a.945.945 0 0 0 .947-.941V3.626a.937.937 0 0 0-.314-.7L23.744.624a.947.947 0 0 0-.633-.241H3.648z"/>
        <path id="o" d="M3.22.383L.014 3.207v27.766h26.933V3.207L23.74.383z"/>
        <path id="q" d="M3.648.383a.948.948 0 0 0-.633.241L.443 2.926a.94.94 0 0 0-.313.7v26.406c0 .52.424.941.947.941h24.606a.944.944 0 0 0 .946-.941V3.626a.937.937 0 0 0-.314-.7L23.744.624a.95.95 0 0 0-.633-.241H3.648z"/>
        <path id="s" d="M3.22.383L.014 3.207v27.766h26.933V3.207L23.74.383z"/>
        <path id="u" d="M3.648.383a.948.948 0 0 0-.633.241L.443 2.926a.94.94 0 0 0-.313.7v26.406c0 .52.424.941.947.941h24.606a.944.944 0 0 0 .946-.941V3.626a.937.937 0 0 0-.314-.7L23.745.624a.951.951 0 0 0-.634-.241H3.648z"/>
        <path id="w" d="M9.198 5.114A2.727 2.727 0 0 1 7.21 6.678C2.9 7.46-.293 11.526.228 16.238c.431 3.9 3.478 7.073 7.305 7.603a8.413 8.413 0 0 0 5.04-.85c1.274-.654 2.833-.294 3.598.93 1.669 2.672 4.733 4.354 8.152 3.988 3.951-.424 7.151-3.666 7.576-7.68.407-3.85-1.663-7.255-4.791-8.788-.956-.468-1.606-1.438-1.578-2.515a8.122 8.122 0 0 0-.582-3.235C23.648 2.408 20.596.078 17.113.023h-.136c-3.46 0-6.433 2.088-7.779 5.09"/>
        <path id="y" d="M16.188.023c-3.8.055-7.131 2.385-8.548 5.668a7.536 7.536 0 0 0-.636 3.235c.03 1.077-.678 2.047-1.72 2.515C1.87 12.974-.39 16.38.056 20.23c.463 4.013 3.955 7.255 8.265 7.68 3.731.364 7.074-1.317 8.895-3.989.835-1.224 2.537-1.584 3.925-.93 1.618.765 3.506 1.102 5.5.85 4.174-.53 7.499-3.704 7.97-7.603.568-4.712-2.915-8.777-7.62-9.56-.948-.159-1.77-.748-2.169-1.564C23.354 2.11 20.11.022 16.335.022l-.148.001"/>
        <path id="A" d="M3.22.386L.014 3.779v33.357h26.933V3.78L23.74.386z"/>
        <path id="C" d="M3.648.386a.867.867 0 0 0-.634.29L.445 3.441c-.2.215-.314.52-.314.84v31.725c0 .624.424 1.13.947 1.13h24.606c.522 0 .945-.506.945-1.13V4.282c0-.32-.113-.626-.313-.84L23.744.675a.866.866 0 0 0-.633-.29H3.648z"/>
        <path id="E" d="M9.198 5.114A2.73 2.73 0 0 1 7.21 6.678C2.9 7.46-.293 11.526.228 16.238c.431 3.9 3.478 7.073 7.305 7.603a8.414 8.414 0 0 0 5.04-.85c1.273-.654 2.833-.294 3.598.93 1.669 2.672 4.733 4.353 8.152 3.988 3.951-.424 7.151-3.666 7.576-7.68.407-3.85-1.663-7.255-4.791-8.788-.956-.468-1.605-1.438-1.578-2.515a8.122 8.122 0 0 0-.582-3.235C23.648 2.408 20.595.078 17.113.023a5.981 5.981 0 0 0-.136-.001c-3.46 0-6.433 2.09-7.779 5.092"/>
        <path id="G" d="M16.65.022c-3.534 0-6.4 2.756-6.4 6.158v8.645c-.17-.008-.338-.025-.511-.025C4.366 14.8.01 18.99.01 24.16c0 5.17 4.356 9.361 9.729 9.361h.011c.654 0 1.276.28 1.649.798 1.154 1.6 3.074 2.65 5.252 2.65h2.684c3.535 0 6.4-2.757 6.4-6.157 0-.596.613-1.004 1.194-.801 1.027.357 2.135.554 3.29.554 5.336 0 9.668-4.133 9.728-9.253.059-4.994-4.118-9.244-9.306-9.459l-.118-.004c-2.653-.078-4.788-2.109-4.788-4.662V6.18c0-3.402-2.865-6.158-6.4-6.158H16.65z"/>
        <path id="I" d="M16.65.022c-3.534 0-6.4 2.756-6.4 6.158v8.645c-.17-.008-.339-.024-.511-.024C4.366 14.8.01 18.99.01 24.16c0 5.169 4.356 9.36 9.729 9.36h.011c.654 0 1.275.28 1.649.797 1.154 1.601 3.073 2.652 5.252 2.652h2.684c3.534 0 6.4-2.758 6.4-6.159 0-.594.613-1.002 1.194-.8 1.027.357 2.134.554 3.29.554 5.336 0 9.668-4.133 9.728-9.253.059-4.995-4.118-9.244-9.305-9.459l-.119-.004c-2.653-.079-4.788-2.11-4.788-4.662V6.18c0-3.402-2.866-6.158-6.4-6.158H16.65z"/>
        <path id="K" d="M.44.29h85.311v40.814H.441z"/>
        <path id="M" d="M.395.357h278.226v70.312H.395z"/>
    </defs>
    <g fill="none" fill-rule="evenodd">
        <path d="M-53-33h378v268H-53z"/>
        <path d="M104 146h21V87h-21z"/>
        <g transform="translate(101 87)">
            <mask id="b" fill="#fff">
                <use xlink:href="#a"/>
            </mask>
            <path d="M.082 57.97h3.505V.022H.082z" mask="url(#b)"/>
        </g>
        <g transform="translate(88 101)">
            <mask id="d" fill="#fff">
                <use xlink:href="#c"/>
            </mask>
            <path d="M.129 44.968h20.82V0H.129z" mask="url(#d)"/>
        </g>
        <path d="M84 146h3v-45h-3zM154 146h21V87h-21zM151 146h3V87h-3zM130 146h21V92h-21zM127 146h3V92h-3zM195 140h21V81h-21z"/>
        <g transform="translate(193 81)">
            <mask id="f" fill="#fff">
                <use xlink:href="#e"/>
            </mask>
            <path d="M.083 57.97h3.505V.022H.083z" mask="url(#f)"/>
        </g>
        <path d="M217 142h21V97h-21z"/>
        <g transform="translate(214 97)">
            <mask id="h" fill="#fff">
                <use xlink:href="#g"/>
            </mask>
            <path d="M.083 44.968h3.505V0H.083z" mask="url(#h)"/>
        </g>
        <g transform="translate(39 101)">
            <mask id="j" fill="#fff">
                <use xlink:href="#i"/>
            </mask>
            <path d="M.129 44.968h20.82V0H.129z" mask="url(#j)"/>
        </g>
        <path d="M35 146h3v-45h-3z"/>
        <g transform="translate(59 114)">
            <mask id="l" fill="#fff">
                <use xlink:href="#k"/>
            </mask>
            <path d="M3.22.383L.014 3.207v27.766h26.933V3.207L23.74.383z" mask="url(#l)"/>
        </g>
        <g transform="translate(61 114)">
            <mask id="n" fill="#fff">
                <use xlink:href="#m"/>
            </mask>
            <path d="M3.648.383a.95.95 0 0 0-.633.241L.443 2.926a.94.94 0 0 0-.313.7v26.406c0 .52.424.941.947.941h24.605a.945.945 0 0 0 .947-.941V3.626a.937.937 0 0 0-.314-.7L23.744.624a.947.947 0 0 0-.633-.241H3.648z" mask="url(#n)"/>
        </g>
        <path d="M172 146h21v-45h-21zM168 146h3v-45h-3z"/>
        <g transform="translate(216 114)">
            <mask id="p" fill="#fff">
                <use xlink:href="#o"/>
            </mask>
            <path d="M3.22.383L.014 3.207v27.766h26.933V3.207L23.74.383z" mask="url(#p)"/>
        </g>
        <g transform="translate(220 114)">
            <mask id="r" fill="#fff">
                <use xlink:href="#q"/>
            </mask>
            <path d="M3.648.383a.948.948 0 0 0-.633.241L.443 2.926a.94.94 0 0 0-.313.7v26.406c0 .52.424.941.947.941h24.606a.944.944 0 0 0 .946-.941V3.626a.937.937 0 0 0-.314-.7L23.744.624a.95.95 0 0 0-.633-.241H3.648z" mask="url(#r)"/>
        </g>
        <g transform="translate(6 114)">
            <mask id="t" fill="#fff">
                <use xlink:href="#s"/>
            </mask>
            <path d="M3.22.383L.014 3.207v27.766h26.933V3.207L23.74.383z" mask="url(#t)"/>
        </g>
        <g transform="translate(9 114)">
            <mask id="v" fill="#fff">
                <use xlink:href="#u"/>
            </mask>
            <path d="M3.648.383a.948.948 0 0 0-.633.241L.443 2.926a.94.94 0 0 0-.313.7v26.406c0 .52.424.941.947.941h24.606a.944.944 0 0 0 .946-.941V3.626a.937.937 0 0 0-.314-.7L23.745.624a.951.951 0 0 0-.634-.241H3.648z" mask="url(#v)"/>
        </g>
        <g transform="translate(44 133)">
            <mask id="x" fill="#fff">
                <use xlink:href="#w"/>
            </mask>
            <path d="M9.198 5.114A2.727 2.727 0 0 1 7.21 6.678C2.9 7.46-.293 11.526.228 16.238c.431 3.9 3.478 7.073 7.305 7.603a8.413 8.413 0 0 0 5.04-.85c1.274-.654 2.833-.294 3.598.93 1.669 2.672 4.733 4.354 8.152 3.988 3.951-.424 7.151-3.666 7.576-7.68.407-3.85-1.663-7.255-4.791-8.788-.956-.468-1.606-1.438-1.578-2.515a8.122 8.122 0 0 0-.582-3.235C23.648 2.408 20.596.078 17.113.023h-.136c-3.46 0-6.433 2.088-7.779 5.09" mask="url(#x)"/>
        </g>
        <g transform="translate(-9 123)">
            <mask id="z" fill="#fff">
                <use xlink:href="#y"/>
            </mask>
            <path d="M16.188.023c-3.8.055-7.131 2.385-8.548 5.668a7.536 7.536 0 0 0-.636 3.235c.03 1.077-.678 2.047-1.72 2.515C1.87 12.974-.39 16.38.056 20.23c.463 4.013 3.955 7.255 8.265 7.68 3.731.364 7.074-1.317 8.895-3.989.835-1.224 2.537-1.584 3.925-.93 1.618.765 3.506 1.102 5.5.85 4.174-.53 7.499-3.704 7.97-7.603.568-4.712-2.915-8.777-7.62-9.56-.948-.159-1.77-.748-2.169-1.564C23.354 2.11 20.11.022 16.335.022l-.148.001" mask="url(#z)"/>
        </g>
        <g transform="translate(243 114)">
            <mask id="B" fill="#fff">
                <use xlink:href="#A"/>
            </mask>
            <path d="M3.22.386L.014 3.779v33.357h26.933V3.78L23.74.386z" mask="url(#B)"/>
        </g>
        <g transform="translate(246 114)">
            <mask id="D" fill="#fff">
                <use xlink:href="#C"/>
            </mask>
            <path d="M3.648.386a.867.867 0 0 0-.634.29L.445 3.441c-.2.215-.314.52-.314.84v31.725c0 .624.424 1.13.947 1.13h24.606c.522 0 .945-.506.945-1.13V4.282c0-.32-.113-.626-.313-.84L23.744.675a.866.866 0 0 0-.633-.29H3.648z" mask="url(#D)"/>
        </g>
        <g transform="translate(218 123)">
            <mask id="F" fill="#fff">
                <use xlink:href="#E"/>
            </mask>
            <path d="M9.198 5.114A2.73 2.73 0 0 1 7.21 6.678C2.9 7.46-.293 11.526.228 16.238c.431 3.9 3.478 7.073 7.305 7.603a8.414 8.414 0 0 0 5.04-.85c1.273-.654 2.833-.294 3.598.93 1.669 2.672 4.733 4.353 8.152 3.988 3.951-.424 7.151-3.666 7.576-7.68.407-3.85-1.663-7.255-4.791-8.788-.956-.468-1.605-1.438-1.578-2.515a8.122 8.122 0 0 0-.582-3.235C23.648 2.408 20.595.078 17.113.023a5.981 5.981 0 0 0-.136-.001c-3.46 0-6.433 2.09-7.779 5.092" mask="url(#F)"/>
        </g>
        <path fill="#EDF7F6" d="M142.145 119.849a4.415 4.415 0 0 0-.113-.005c-2.524-.078-4.555-2.112-4.555-4.669v-1.008c0-3.406-2.726-6.167-6.09-6.167h-2.554c-3.363 0-6.09 2.76-6.09 6.167v8.658c-.162-.009-.322-.025-.487-.025-5.112 0-9.256 4.196-9.256 9.373s4.144 9.374 9.256 9.374h.012c.622-.001 1.213.281 1.568.799 1.098 1.603 2.925 2.654 4.997 2.654h2.554c3.364 0 6.09-2.76 6.09-6.167a.846.846 0 0 1 1.136-.802 9.078 9.078 0 0 0 3.13.556c5.077 0 9.2-4.138 9.256-9.266.056-5.002-3.918-9.258-8.854-9.472"/>
        <g transform="translate(10 128)">
            <mask id="H" fill="#fff">
                <use xlink:href="#G"/>
            </mask>
            <path d="M16.65.022c-3.534 0-6.4 2.756-6.4 6.158v8.645c-.17-.008-.338-.025-.511-.025C4.366 14.8.01 18.99.01 24.16c0 5.17 4.356 9.361 9.729 9.361h.011c.654 0 1.276.28 1.649.798 1.154 1.6 3.074 2.65 5.252 2.65h2.684c3.535 0 6.4-2.757 6.4-6.157 0-.596.613-1.004 1.194-.801 1.027.357 2.135.554 3.29.554 5.336 0 9.668-4.133 9.728-9.253.059-4.994-4.118-9.244-9.306-9.459l-.118-.004c-2.653-.078-4.788-2.109-4.788-4.662V6.18c0-3.402-2.865-6.158-6.4-6.158H16.65z" mask="url(#H)"/>
        </g>
        <g transform="translate(167 119)">
            <mask id="J" fill="#fff">
                <use xlink:href="#I"/>
            </mask>
            <path d="M16.65.022c-3.534 0-6.4 2.756-6.4 6.158v8.645c-.17-.008-.339-.024-.511-.024C4.366 14.8.01 18.99.01 24.16c0 5.169 4.356 9.36 9.729 9.36h.011c.654 0 1.275.28 1.649.797 1.154 1.601 3.073 2.652 5.252 2.652h2.684c3.534 0 6.4-2.758 6.4-6.159 0-.594.613-1.002 1.194-.8 1.027.357 2.134.554 3.29.554 5.336 0 9.668-4.133 9.728-9.253.059-4.995-4.118-9.244-9.305-9.459l-.119-.004c-2.653-.079-4.788-2.11-4.788-4.662V6.18c0-3.402-2.866-6.158-6.4-6.158H16.65z" mask="url(#J)"/>
        </g>
        <g transform="translate(14.006)">
            <mask id="L" fill="#fff">
                <use xlink:href="#K"/>
            </mask>
            <path fill="#EDF7F6" d="M5.854 28.62c4.568.3 11.063 1.456 17.2 1.397-.537-1.634-.606-3.238-.518-4.857.352-6.45 3.376-10.66 9.986-10.981 2.428-.118 4.52.956 6.684 1.78C40.314 6.228 44.623.235 55.02.293 70.766 0 78.622 13.116 79.432 18.774c.809 5.658.74 7.016-.954 10.345.451.099 1.501.32 1.963.472 4.288 1.323 5.675 4.225 5.231 6.763-.444 2.538-1.024 4.245-5.393 3.957-26.222-5.998-50.911 4.848-75.2-1.003C.776 38.27.431 34.825.44 32.37c.008-2.454 4.035-4.114 5.414-3.752" mask="url(#L)"/>
        </g>
        <path stroke="#FEFEFE" stroke-linecap="round" stroke-linejoin="round" stroke-width="2" d="M107.213 29.917c-4.488-3.49-10.972-4.986-17.953-5.485-6.982-.498-13.466 4.488-18.453 4.488s-9.475-1.995-9.974-6.482c-.499-4.488 1.995-8.975 5.985-9.474 3.99-.499 7.979 1.496 8.478 4.488.498 2.991-1.995 5.484-4.987 4.986"/>
        <path fill="#EDF7F6" d="M192.64 50.74c3.07.201 7.433.978 11.558.94-.362-1.098-.408-2.176-.348-3.264.236-4.335 2.268-7.164 6.71-7.38 1.632-.08 3.036.642 4.492 1.196.744-6.539 3.64-10.565 10.626-10.527 10.581-.197 15.86 8.616 16.405 12.419.543 3.801.497 4.714-.641 6.952.303.066 1.008.214 1.318.317 2.882.889 3.815 2.839 3.516 4.544-.298 1.706-.688 2.853-3.624 2.66-17.62-4.032-34.212 3.257-50.533-.675-2.891-.696-3.123-3.012-3.117-4.661.005-1.65 2.711-2.764 3.637-2.521"/>
        <path stroke="#FEFEFE" stroke-linecap="round" stroke-linejoin="round" stroke-width="2" d="M251.34 51.612c-3.016-2.346-7.373-3.351-12.065-3.687-4.691-.334-9.048 3.016-12.4 3.016-3.35 0-6.367-1.34-6.702-4.355-.335-3.016 1.34-6.032 4.022-6.367 2.68-.335 5.362 1.006 5.697 3.016.335 2.01-1.34 3.686-3.352 3.35"/>
        <g transform="translate(.042 131.635)">
            <mask id="N" fill="#fff">
                <use xlink:href="#M"/>
            </mask>
            <path fill="#8CD1CA" d="M26.557 12.12c1.901-.306 4.41-.241 6.426-.437 25.012-2.43 49.674-5.085 74.299-10.63 2.57-.58 4.531-.985 7.822-.438 45.398 7.542 94.468.6 139.28 8.095 15.923 2.663 24.238 9.605 24.238 21.14s-11.61 21.425-22.69 23.644c-1.705.343-6.323.533-8.057.67-20.485 1.636-38.956-3.12-59.653 2.684-20.698 5.806-26.174 16.68-56.022 13.12-29.848-3.56-77.699-14.744-110.63-12.463C5.6 56.838-1.29 48.725.744 34.384 2.733 20.345 13.817 14.17 26.557 12.12" mask="url(#N)"/>
            <g stroke="#EDF7F6" stroke-linecap="round" stroke-linejoin="round" stroke-width="2" mask="url(#N)">
                <path d="M-14.428-51.825c8.405 5.79 9.699 17.728 16.016 25.484 8.909-7.674 13.804-20.186 24.033-26.088M.26-16.324c10.362-8.869 16.876-22.611 28.642-29.638M-37.777 35.21c14.073.848 27.752 8.58 38.23 17.762"/>
            </g>
        </g>
        <path fill="#B2E0E3" d="M30.33 133.793c-19.465 0-26.35-16.64-26.35-23.572 0-6.933 13.869-12.48 13.869-19.412 0-6.932-2.774-8.32-2.774-18.025 0-9.706 8.32-9.706 11.095-16.64 2.773-6.932 6.934-18.024 13.868-12.478 6.934 5.546-1.387 18.025 4.16 23.571 5.547 5.547 5.547 13.866 1.387 20.799s6.934 15.252 6.934 24.958c0 9.706-9.708 20.799-22.19 20.799"/>
        <path fill="#E4F3F5" d="M26.076 124.588c-.284-7.446 6.57-14.755 3.586-23.336-2.294-6.598-.07-9.81 4.41-14.367 4.478-4.557 1.116-12.374 7.221-15.157 4.32-1.968 6.127 1.956 7.243 5.961.044 3.466-.98 7.062-2.951 10.347-2.955 4.924 1.784 10.549 4.779 16.872-.13.514-.234 1.061-.292 1.662-.21 2.14 1.009 4.072 2.434 6.046.003.127.013.252.013.378 0 9.477-9.262 20.245-21.316 20.75-2.831-2.292-4.988-5.516-5.127-9.156"/>
        <path fill="#47BFB3" d="M29.662 101.253c-2.294-6.6-.07-9.812 4.409-14.368 4.479-4.557 1.117-12.374 7.222-15.157 4.32-1.968 6.127 1.956 7.243 5.961.044 3.466-.98 7.061-2.951 10.347-2.955 4.924 1.784 10.548 4.779 16.872 1.167 2.463 2.063 5.033 2.142 7.709.003.126.013.25.013.377 0 9.477-9.262 20.245-21.317 20.75-2.83-2.293-4.987-5.516-5.126-9.156-.285-7.445 6.57-14.755 3.586-23.335"/>
        <path stroke="#EDF7F6" stroke-linecap="round" stroke-linejoin="round" stroke-width="2" d="M38.44 42.844c-3.336 4.584-9.497 45.192-10.884 64.604-1.386 19.412 1.387 48.53 1.387 48.53"/>
        <path stroke="#EDF7F6" stroke-linecap="round" stroke-linejoin="round" stroke-width="2" d="M45.855 69.458c-6.143.343-13.334 6.4-15.026 8.841-2.08-2.719-10.263-13.216-10.548-15.491M30.17 82.248c-6.912-5.208-13.383-14.155-11.863-18.782M32.803 65.14c-2.881-2.004-5.006-11.965-4.624-14.835M37.264 108.623c-4.372 1.89-7.476 5.18-9.801 8.538-4.525-1.785-15.529-13.743-14.668-18.34M44.977 94.806c-5.266 0-14.53 6.495-16.856 9.853"/>
        <path stroke="#EDF7F6" stroke-linecap="round" stroke-linejoin="round" stroke-width="2" d="M37.264 115.204c-4.372 1.889-7.476 5.18-9.801 8.538-4.525-1.786-22.11-13.744-21.25-18.341"/>
        <path fill="#B2E0E3" d="M43.275 139.898c9-1.336 13.157-6.55 15.554-13.14 2.398-6.59-5.753-11.305-4.801-16.633.952-5.328 4.792-6.566 5.673-11.346.881-4.78-3.28-8.458-4.132-12.89-.852-4.431-1.232-13.482-7.538-11.19-6.307 2.291-3.573 10.35-8.398 14.538-4.825 4.189-7.296 7.215-5.53 13.975 2.295 8.789-5.115 15.535-5.42 22.98-.321 7.85 8.82 14.562 14.592 13.706"/>
        <path stroke="#EDF7F6" stroke-linecap="round" stroke-linejoin="round" stroke-width="2" d="M50.433 74.773c-1.354 12.3-6.013 31.782-6.234 44.12.692 15.593-3.468 26.686-6.72 38.28"/>
        <path stroke="#EDF7F6" stroke-linecap="round" stroke-linejoin="round" stroke-width="2" d="M40.81 88.32c2.628 1.151 3.508 7.802 5.945 10.4 3.487-1.94 7.001-9.009 9.669-9.657M46.097 102.668c3.487-1.94 8.975-10.324 11.643-10.974M31.571 117.146c3.534.033 11.184 7.037 12.95 9.843 1.693-1.656 9.475-9.713 9.382-14.253M29.597 121.094c3.533.033 12.5 6.379 14.266 9.186M34.204 105.301c3.533.033 7.893 6.38 9.659 9.186"/>
        <path fill="#F7F4EC" d="M115.279 113.627c-2.3-2.298-3.066-6.13-3.832-8.428-.429-1.285-.857-2.474-1.152-4.625-.256-1.869-1.807-4.839-3.692-4.902-1.103-.036-2.207-.741-2.82-.435a3.68 3.68 0 0 0-.687.434c-2.98 2.424-4.488 6.386-4.732 10.133.035.6.25 1.17.622 1.644.96 1.219 2.907 3.728 4.03 5.413 1.533 2.299 0 7.663 1.533 9.195 1.533 1.533 13.029-6.13 10.73-8.429"/>
        <path fill="#555589" d="M112.59 146.053c.138-.817-.377-1.008-1.516-1.84-1.139-.83-1.176-1.18-1.901-2.608-.727-1.428-3.663-6.89-4.793-8.543-1.13-1.652-2.177-2.135-3.279-3.12-.608-.544-.645-.448-1.08-.915.37-.566 2.34-.031 2.624.016 1.403.232 6.22 2.905 6.587 2.688.947-.558-.926-1.18-1-2.525-.028-.537-.64-3.295-1.243-4.482-.2-.391-.386-.583-1.314-1.36-.928-.776-1.678-.94-3.825-.774-2.146.166-6.498 1.765-8.644 2.884-2.146 1.12-2.37 2.149-2.385 3.677-.012 1.191.756 1.617 1.508 2.2 1.624 1.262 2.078 1.267 4.185 2.938a347.93 347.93 0 0 1 5.956 4.963c.657.569 2.31 1.96 2.774 2.381 1.396 1.271 2.32 2.04 3.546 3.185.234.22.262.36-.1.527-.363.166-1.04.754-1.4.915-.6.27-1.228.968-.33 1.205.784.256 5.493-.595 5.63-1.412"/>
        <path fill="#FEFEFE" d="M125.617 152.723l.377-.067-1.74-10.008-.378.066z"/>
        <path fill="#FEFEFE" d="M125.58 152.976l.155-.35-9.278-4.14-.156.35z"/>
        <path fill="#FEFEFE" d="M117.013 158.648l8.235-5.95-.224-.31-8.236 5.95zM124.924 163.212l.406-10.151-.383-.015-.406 10.15z"/>
        <path fill="#FEFEFE" d="M134.072 158.584l.186-.335-8.885-4.927-.185.335zM135.415 156.258l.108-.368-9.751-2.853-.108.368zM125.503 152.82l7.814-6.493-.244-.294-7.815 6.491z"/>
        <path fill="#FEFEFE" d="M125.662 152.946l.36-.134-3.554-9.517-.36.135z"/>
        <path fill="#FEFEFE" d="M125.648 151.602l.019-.384-10.149-.487-.019.383zM118.092 160.109l6.158-8.08-.305-.232-6.158 8.08zM121.357 162.24l4.881-8.909-.336-.184-4.88 8.91z"/>
        <path fill="#FEFEFE" d="M127.51 163.142l.376-.076-2.044-9.95-.375.076zM125.567 152.803l10.095-1.152-.043-.38-10.095 1.151z"/>
        <path fill="#FEFEFE" d="M125.528 152.732l8.594-5.418-.205-.324-8.594 5.418z"/>
        <path fill="#FEFEFE" d="M125.588 139.399c-7.45 0-13.51 6.06-13.51 13.508 0 7.448 6.06 13.508 13.51 13.508s13.51-6.06 13.51-13.508c0-7.448-6.06-13.508-13.51-13.508m0 3.064c5.769 0 10.445 4.676 10.445 10.444 0 5.767-4.676 10.443-10.445 10.443s-10.445-4.676-10.445-10.443c0-5.768 4.676-10.444 10.445-10.444"/>
        <path fill="#555589" d="M125.588 142.464c-5.769 0-10.445 4.675-10.445 10.443s4.676 10.443 10.445 10.443 10.445-4.675 10.445-10.443-4.676-10.443-10.445-10.443m0 .383c5.548 0 10.062 4.513 10.062 10.06 0 5.547-4.514 10.06-10.062 10.06-5.548 0-10.062-4.513-10.062-10.06 0-5.547 4.514-10.06 10.062-10.06"/>
        <path fill="#555589" d="M125.588 150.731a2.176 2.176 0 1 0 0 4.352 2.176 2.176 0 0 0 0-4.352m0 .767c.778 0 1.41.632 1.41 1.41a1.411 1.411 0 0 1-2.82 0c0-.778.633-1.41 1.41-1.41"/>
        <path fill="#FEFEFE" d="M69.324 151.086l.377-.066-1.74-10.008-.378.065z"/>
        <path fill="#FEFEFE" d="M69.286 151.34l.156-.35-9.278-4.14-.156.35z"/>
        <path fill="#FEFEFE" d="M60.72 157.011l8.235-5.95-.225-.31-8.235 5.95zM68.63 161.575l.407-10.15-.383-.016-.407 10.151z"/>
        <path fill="#FEFEFE" d="M77.779 156.947l.186-.335-8.885-4.927-.186.336zM79.121 154.622l.108-.368-9.75-2.854-.109.368zM69.21 151.183l7.813-6.492-.244-.295-7.815 6.492z"/>
        <path fill="#FEFEFE" d="M69.369 151.31l.359-.135-3.554-9.517-.359.135z"/>
        <path fill="#FEFEFE" d="M69.355 149.965l.018-.383-10.148-.488-.019.383zM61.798 158.472l6.159-8.08-.305-.232-6.159 8.08zM65.064 160.604l4.88-8.91-.335-.184-4.881 8.91z"/>
        <path fill="#FEFEFE" d="M71.217 161.506l.375-.077-2.043-9.95-.376.076zM69.274 151.166l10.095-1.152-.044-.38-10.094 1.152z"/>
        <path fill="#FEFEFE" d="M69.234 151.096l8.595-5.418-.204-.325-8.595 5.418z"/>
        <path fill="#FEFEFE" d="M69.295 137.762c-7.45 0-13.511 6.06-13.511 13.509 0 7.448 6.061 13.508 13.51 13.508 7.45 0 13.511-6.06 13.511-13.508 0-7.449-6.06-13.509-13.51-13.509m0 3.065c5.768 0 10.445 4.676 10.445 10.444 0 5.767-4.677 10.442-10.445 10.442-5.769 0-10.445-4.675-10.445-10.442 0-5.768 4.676-10.444 10.445-10.444"/>
        <path fill="#555589" d="M69.295 140.827c-5.769 0-10.445 4.676-10.445 10.444 0 5.767 4.676 10.443 10.445 10.443 5.768 0 10.445-4.676 10.445-10.443 0-5.768-4.677-10.444-10.445-10.444m0 .383c5.548 0 10.062 4.513 10.062 10.06 0 5.548-4.514 10.06-10.062 10.06-5.548 0-10.062-4.512-10.062-10.06 0-5.547 4.514-10.06 10.062-10.06"/>
        <path fill="#555589" d="M69.295 149.095a2.176 2.176 0 1 0 0 4.352 2.176 2.176 0 0 0 0-4.352m0 .766a1.41 1.41 0 1 1-1.41 1.41c0-.777.632-1.41 1.41-1.41"/>
        <path fill="#F3DB78" d="M69.306 115.346l-2.594 12.35 10.817 5.041 5.192-11.138-13.415-6.253zm8.246 18.247l-11.44-5.332a.382.382 0 0 1-.212-.426l2.755-13.119a.383.383 0 0 1 .537-.269l14.2 6.62a.383.383 0 0 1 .186.508l-5.516 11.833a.384.384 0 0 1-.51.185z"/>
        <path fill="#F3DB78" d="M75.8 129.302a.191.191 0 0 0 .08-.365l-8.904-4.151a.191.191 0 1 0-.162.348l8.906 4.15a.194.194 0 0 0 .08.018M73.354 125.282a.191.191 0 0 0 .08-.365l-5.749-2.68a.194.194 0 0 0-.255.092.191.191 0 0 0 .094.254l5.75 2.68a.202.202 0 0 0 .08.019M75.64 123.466a.191.191 0 0 0 .081-.365L68 119.502a.194.194 0 0 0-.255.093.191.191 0 0 0 .094.254l7.722 3.6a.2.2 0 0 0 .08.017"/>
        <path fill="#F3DB78" d="M68.36 128.995a.19.19 0 0 0 .187-.148l2.45-10.417a.191.191 0 0 0-.142-.23.189.189 0 0 0-.23.142l-2.451 10.417a.192.192 0 0 0 .186.236M70.673 128.153a.191.191 0 0 0 .186-.146l2.11-8.655a.192.192 0 0 0-.14-.233.195.195 0 0 0-.232.14l-2.11 8.656a.193.193 0 0 0 .186.238"/>
        <path fill="#555589" d="M125.397 153.752l7.545-15.775-.345-.164-6.817 14.249v-14.385h-.383z"/>
        <path fill="#555589" d="M116.953 138.06h20.168a.383.383 0 1 0 0-.766h-20.168a.382.382 0 1 0 0 .766"/>
        <path fill="#F49698" d="M68.549 152.023l.578.284a.598.598 0 0 0 .8-.274l15.59-31.779a.598.598 0 0 0-.274-.8l-.578-.284a.599.599 0 0 0-.8.274l-15.59 31.78a.598.598 0 0 0 .274.8M100.583 154.59l1.598.703 11.187-25.403-1.597-.703z"/>
        <path fill="#F49698" d="M124.845 153.339l1.653-.955-13.227-22.904-1.652.954zM99.816 152.541l1.075-1.638-24.172-15.856-1.075 1.639zM106.825 143.638c-.071-.872-.157-.974-.24-1.844-11.26.266-19.49-5.158-25.063-15.05-.805.336-.843.674-1.647 1.012 5.589 10.352 15.265 16.265 26.95 15.882"/>
        <path fill="#F49698" d="M125.521 150.649l-22.259-1.398a3.905 3.905 0 1 0 0 7.793l22.26-1.398a2.504 2.504 0 0 0 0-4.997"/>
        <path fill="#282460" d="M85.02 120.781c1.136-1.024 4.414.191 6.755.573a.961.961 0 0 0 1.004-1.228l-.169-.573a.961.961 0 0 0-.922-.69H85.1a.962.962 0 0 0-.08 1.918"/>
        <path fill="#6D6EA5" d="M105.01 130.403h13.927v-2.61H105.01z"/>
        <path fill="#FEFEFE" d="M120.047 152.555a.192.192 0 0 0 .015-.382l-14.73-1.19c-.104-.015-.199.07-.207.176a.191.191 0 0 0 .175.206l14.732 1.19h.015M109.148 154.43h.004l14.732-.342a.192.192 0 0 0 .187-.197c-.003-.105-.087-.2-.196-.187l-14.732.343a.192.192 0 0 0 .005.384"/>
        <path fill="#F49698" d="M101.484 83.743s-2.3-.766-3.832 1.533c-1.533 2.299 0 4.597-1.533 6.13-1.533 1.532 1.533 0 3.066-1.533 1.532-1.532 2.299-6.13 2.299-6.13M113.812 85.988c1.611 1.121 2.337 2.621 2.953 4.04.224.18.5.323.866.405 1.161.26.614.445-.477.49.569 1.28 1.185 2.401 2.495 2.976 2.998 1.316-2.053.883-5.052-.433-2.999-1.315-6.863-7.469-6.863-7.469s2.607-2.424 6.078-.009"/>
        <path fill="#F49698" d="M99.185 85.276c-.081-.312 1.521-2.153 3.065-2.299 1.35-.127 2.872-.324 4.599.767 1.448.914 2.299 2.298 2.299 3.064s0 2.3-.767 3.831c-.766 1.533-3.065 2.3-3.065 2.3-2.817-1.067-4.86-3.62-6.131-7.663"/>
        <path fill="#8284BF" d="M101.412 95.446c-.128.934.391 1.63.089 2.367-.212.514.264-.84.772-.991.627-.186.22.093-.285.787-.504.693-1.779 3.468-1.779 3.468s-2.24 5.036-3.535 7.668c-1.32 2.685-5.492 8.129-5.492 8.129s-.428.584-1.536 1.385c-1.226.383-2.94-.102-3.599.698-.658.8.108.8-.065.828.94.739 2.125.59 2.659.46.543-.13 1.098-.662 1.537-.98.915-.665 1.993-1.162 2.947-1.775 1.306-.84 1.735-1.022 2.894-2.053 2.039-1.813 3.886-3.794 5.78-5.751 1.83-1.89 3.624-3.82 5.133-5.981 1.165-1.669 2.977-4.287 1.89-6.39a3.082 3.082 0 0 0-1.054-1.158c-.413-.27-.918-.363-1.313-.657-1.14-1.029-1.048-2.12-1.092-2.635-.989-.46-1.934-1.053-2.29-2.142-.162-.496-.165-.511.231-.653.502-.179.805-.495.73-1.104-.083-.659-.412-.444-.885-.553-.408-.093-.205-.822-.615-.983-1.027-.404-2.598-1.02-3.349-2.178-.821.953-1.21 2.06-1.177 3.316-.356 1.305-1.445 1.719-.774 2.35.273.285.272.284.459.475-.075.923-.041 2.312.706 2.658.628.291 1.395.075 2.055-.017.218-.03.677-.17.884-.059.173.095.074 1.47.074 1.47M104.845 157.375c.168-.384.044-.8.097-1.198-.004-.043.024-1.943.147-3.25.12-1.29.919-9.4.922-10.779.005-1.51-.99-4.857-1.778-5.524-.412-.394-.669-.908-1.04-1.334.063-.268 2.05-1.482 2.254-1.54.845-.61 5.97-1.835 6.066-1.845.017-.25-2.478-1.423-2.714-1.818-.15-.106-3.322-3.437-3.578-3.658-.112 0-1.454-.94-2.11-1.205-.838-.34-.861-.87-2.481.167-1.62 1.036-3.591 2.9-4.338 3.829-.71.883-1.248 1.732-1.686 2.8-.341.833.02 2.33.188 2.712.363.824 1.398 3.015 1.984 4.204.221.45 2.753 6.024 3.19 7.284.347.539 1.226 3.166 1.42 3.703.583 1.62.994 3.287 1.332 4.973.065.322-.048.512-.386.55-.555.063-1.11.13-1.665.19-.603.067-.92.3-1.02.762.162.635 5.09 1.142 5.196.977"/>
        <path fill="#26265E" d="M100.26 125.018c-.31.103-.381.359-.284.726.751-.528 1.478-.27 2.186.02.843.344 3.883 3.22 3.926 3.278.567.428 1.83 1.787 3.594 2.764 1.765.978 4.143 1.827 7.17 1.02 3.025-.808 8.11-3.593 9.783-3.733 1.673-.14 2.787-.553 3.861-1.6.067-.067 1.298-1.6 1.487-2.322.235-.895-.252-1.556-1.17-1.542-.62.01-1.25.074-1.858-.052-1.378-.283-2.112-.564-3.678-1.809-1.567-1.244-3.867-5.842-10.142-8.348-.22-.126-.38-.11-.593.024-.972.618-1.89 1.301-2.704 2.12a726.56 726.56 0 0 1-4.87 4.404c-.72.515-1.47.982-2.328 1.23-.348.101-.572.274-.759.606-.25.443-3.31 3.111-3.62 3.214"/>
        <path fill="#282460" d="M107.112 149.04l5.975-1.69-.417-1.474-5.975 1.69zM99.043 157.922l6.142.915.226-1.516-6.142-.915zM110.68 166.5h28.74a.383.383 0 1 0 0-.766h-28.74a.382.382 0 1 0 0 .765M54.733 164.967h28.74a.383.383 0 1 0 0-.766h-28.74a.383.383 0 1 0 0 .766M180.373 162.782l6.222-1.76-.435-1.535-6.221 1.76z"/>
        <path fill="#555589" d="M185.783 159.593c.55-1.136-.485-1.214-1.284-2.071-.798-.858-1.073-1.003-1.828-2.805-.756-1.802-2.783-6.783-3.608-8.704-.825-1.923-3.285-3.882-3.653-4.44.323-.592 9.36-2.63 10.028-3.166 1.727-1.386-3.279-7.971-4.207-8.154-.928-.182-3.59 1.584-3.59 1.584l-8.297 5.882s-2.517 1.963-2.655 3.742c-.107 1.388.725 1.677 1.403 2.413 1.464 1.589 2.097 1.623 3.773 3.671.634.775 3.322 3.989 4.458 5.206.547.585 1.828 1.974 2.258 2.41 1.3 1.31 2.23 2.094 3.483 3.239.24.219.218.376-.132.587-.35.21-1.024.826-1.354 1.022-.55.328-1.322 1.043-.194 1.215 1.129.173 4.849-.496 5.4-1.631"/>
        <path fill="#FEFEFE" d="M200.101 166.262l.393-.069-2.413-13.872-.392.069z"/>
        <path fill="#FEFEFE" d="M200.011 166.565l.163-.364-12.861-5.738-.163.364z"/>
        <path fill="#FEFEFE" d="M188.07 174.434l11.417-8.247-.234-.324-11.416 8.247zM199.01 180.81l.562-14.07-.399-.015-.563 14.07z"/>
        <path fill="#FEFEFE" d="M211.788 174.341l.193-.349-12.315-6.83-.193.349zM213.636 171.112l.112-.384-13.516-3.955-.113.383zM199.835 166.357l10.833-8.999-.256-.306-10.832 8.998z"/>
        <path fill="#FEFEFE" d="M200.16 166.56l.375-.14-4.926-13.19-.374.14z"/>
        <path fill="#FEFEFE" d="M200.082 164.655l.02-.4-14.067-.675-.02.399zM189.552 176.472l8.537-11.2-.318-.24-8.536 11.199zM194.073 179.435l6.766-12.35-.35-.19-6.766 12.348z"/>
        <path fill="#FEFEFE" d="M202.725 180.704l.391-.08-2.832-13.792-.392.08zM199.96 166.319l13.993-1.596-.046-.396-13.992 1.596z"/>
        <path fill="#FEFEFE" d="M199.877 166.232l11.913-7.511-.213-.338-11.913 7.51z"/>
        <path fill="#FEFEFE" d="M199.996 150.458c-8.863 0-16.074 7.21-16.074 16.072 0 8.861 7.21 16.071 16.074 16.071 8.863 0 16.075-7.21 16.075-16.071 0-8.862-7.212-16.072-16.075-16.072m0 1.596c7.996 0 14.479 6.48 14.479 14.476 0 7.994-6.483 14.475-14.479 14.475-7.996 0-14.478-6.48-14.478-14.475 0-7.995 6.482-14.476 14.478-14.476"/>
        <path fill="#555589" d="M199.996 152.054c-7.996 0-14.478 6.48-14.478 14.476 0 7.994 6.482 14.475 14.478 14.475 7.996 0 14.479-6.481 14.479-14.475 0-7.995-6.483-14.476-14.479-14.476m0 .399c7.764 0 14.08 6.315 14.08 14.077s-6.316 14.077-14.08 14.077c-7.763 0-14.08-6.315-14.08-14.077s6.317-14.077 14.08-14.077"/>
        <path fill="#555589" d="M199.996 163.514a3.016 3.016 0 1 0 0 6.032 3.016 3.016 0 0 0 0-6.032m0 .798a2.22 2.22 0 0 1 2.218 2.218 2.22 2.22 0 0 1-2.218 2.218 2.22 2.22 0 0 1-2.218-2.218 2.22 2.22 0 0 1 2.218-2.218"/>
        <path fill="#FEFEFE" d="M144.627 180.065l.393-.068-2.413-13.873-.393.069z"/>
        <path fill="#FEFEFE" d="M155.395 171.923l.163-.364-12.86-5.738-.164.364z"/>
        <path fill="#FEFEFE" d="M143.456 166.523l11.415-8.247-.234-.323-11.415 8.246zM143.535 165.662l.563-14.07-.399-.016-.563 14.07z"/>
        <path fill="#FEFEFE" d="M143.042 165.224l.194-.349-12.316-6.83-.193.35zM142.476 165.613l.113-.384-13.516-3.954-.113.383zM132.296 175.335l10.832-9-.256-.306-10.831 9z"/>
        <path fill="#FEFEFE" d="M147.1 179.157l.374-.14-4.926-13.191-.375.14z"/>
        <path fill="#FEFEFE" d="M156.673 168.807l.02-.399-14.067-.676-.02.398zM144.937 167.355l8.536-11.2-.317-.24-8.536 11.199zM142.219 165.492l6.765-12.35-.35-.19-6.765 12.349z"/>
        <path fill="#FEFEFE" d="M142.425 165.555l.391-.079-2.833-13.793-.391.08zM128.8 168.059l13.994-1.596-.046-.396-13.992 1.596z"/>
        <path fill="#FEFEFE" d="M131.13 174.003l11.914-7.51-.212-.339-11.914 7.51z"/>
        <path fill="#FEFEFE" d="M142.712 149.786c-8.863 0-16.074 7.21-16.074 16.07 0 8.862 7.21 16.072 16.074 16.072 8.863 0 16.074-7.21 16.074-16.071 0-8.862-7.21-16.071-16.074-16.071m0 1.595c7.996 0 14.479 6.48 14.479 14.476 0 7.995-6.483 14.475-14.479 14.475-7.996 0-14.478-6.48-14.478-14.475 0-7.995 6.482-14.476 14.478-14.476"/>
        <path fill="#555589" d="M142.712 151.38c-7.996 0-14.478 6.482-14.478 14.477s6.482 14.475 14.478 14.475c7.996 0 14.479-6.48 14.479-14.475 0-7.995-6.483-14.476-14.479-14.476m0 .4c7.764 0 14.08 6.314 14.08 14.076 0 7.762-6.316 14.077-14.08 14.077-7.763 0-14.08-6.315-14.08-14.077s6.317-14.077 14.08-14.077"/>
        <path fill="#555589" d="M142.712 162.84a3.016 3.016 0 1 0 0 6.032 3.016 3.016 0 0 0 0-6.031m0 .798a2.22 2.22 0 0 1 2.218 2.218 2.22 2.22 0 0 1-2.218 2.218 2.221 2.221 0 0 1-2.219-2.218 2.22 2.22 0 0 1 2.22-2.218"/>
        <path fill="#282460" d="M188.78 134.038l1.663.732-3.686 8.368-1.662-.733zM142.328 166.502l.563.203a.499.499 0 0 0 .638-.3l12-33.251a.499.499 0 0 0-.3-.638l-.563-.203a.5.5 0 0 0-.639.3l-11.999 33.251a.498.498 0 0 0 .3.638"/>
        <path fill="#F49698" d="M174.036 167.772l1.425.628a.419.419 0 0 0 .551-.215l11.184-25.386a.418.418 0 0 0-.214-.552l-1.425-.628a.419.419 0 0 0-.552.214l-11.183 25.388a.418.418 0 0 0 .214.55"/>
        <path fill="#F49698" d="M200.786 166.913l.488-.348a.499.499 0 0 0 .115-.696l-15.437-21.59a.499.499 0 0 0-.695-.115l-.487.348a.5.5 0 0 0-.116.696l15.437 21.59c.16.224.471.275.695.115"/>
        <path fill="#F49698" d="M201.072 166.493l-.043-.597a.499.499 0 0 0-.534-.46l-24.6 1.784a.499.499 0 0 0-.46.533l.043.597c.02.274.258.48.533.46l24.6-1.784a.498.498 0 0 0 .461-.533M184.723 145.884l.396-2-32.547-6.442-.396 2z"/>
        <path fill="#F49698" d="M174.907 168.125l1.591-1.278-22.883-28.505-1.59 1.276z"/>
        <path fill="#282460" d="M148.594 132.697c1.184-1.066 4.596.198 7.034.597a1.001 1.001 0 0 0 1.045-1.28l-.175-.596a1 1 0 0 0-.96-.72h-6.859a1 1 0 0 0-.085 2"/>
        <path fill="#555589" d="M176.11 163.408a3.99 3.99 0 1 0 0 7.979 3.99 3.99 0 0 0 0-7.979m0 .798a3.195 3.195 0 0 1 3.191 3.191 3.195 3.195 0 0 1-3.191 3.191 3.195 3.195 0 0 1-3.192-3.191c0-1.76 1.432-3.19 3.192-3.19"/>
        <path fill="#F49698" d="M149.865 144.005l1.465.528a.598.598 0 0 0 .766-.36l2.416-6.697a.599.599 0 0 0-.36-.766l-1.464-.528a.598.598 0 0 0-.766.36l-2.417 6.697a.598.598 0 0 0 .36.766"/>
        <path fill="#26265E" d="M169.81 140.995c.538-1.133 1.281-1.746 2.105-2.675.825-.93 3.275-2.9 3.275-2.9s14.484-8.71 16.08-14.295c0 0 5.385 3.268 6.384 5.585.78 1.81 1.574 7.237-2.394 9.574-3.702 2.18-6.739 2.967-11.21 5.254-1.356.817-6.2 2.633-6.405 3.155.257.963.629 1.723 1.021 2.791.71 1.933 1.112 4.147.756 6.51-.356 2.364-.641 8.052-.967 9.774-.325 1.723-.374 3.65-.43 3.815-.517 1.52.424 1.691-.817 2.218-1.241.527-3.692-.4-4.516-1.496-.592-.79.363-.675.84-.73.478-.056 1.16.065 1.584.003.424-.06.545-.113.494-.521-.266-2.134-.633-3.83-1.123-6.111-.163-.757-.802-3.028-1.037-3.914-.487-1.841-1.773-6.234-2.078-7.315-.808-2.858-1.192-3.783-1.754-6.058-.26-1.053-.23-1.78.191-2.664"/>
        <path fill="#47BFB3" d="M160.392 94.19c.003-.008-.02-.015-.021-.009-.001.007.018.015.02.008M160.368 94.18l-.005-.002.005.002M161.294 91.452c.004-.008-.018-.016-.02-.01-.002.006.017.017.02.01M161.271 91.441l-.004-.002.004.002M171.433 95.81c-.039-1.124-1.036-1.792-1.963-2.15-.928-.36-1.737-.296-2.593-.478-.857-.182-1.334-.5-1.967-1.031-.105-.087-.227-.262-.309-.333-.942-.816-2.195-1.13-3.168-.36-.973.768-1.122 1.588-.968 2.71.154 1.122.918 1.84 1.704 2.56-.106.993.524.83.241 2.068-.473 2.074 5.15 4.989 5.858 4.873 3.56-.579 3.677-3.576 4.153-5.656.475-2.08-.642-.796-.988-2.204"/>
        <path fill="#8284BF" d="M172.128 105.747c-1.246-.656-1.607-1.324-2.6-2.449-.02-.023-1.554-.738-1.878-1.02-.324-.28-1.087-.835-.905-1.348.182-.513.638-.69.514-1.16-.523-1.973-1.322.077-1.437.405-.392 1.112-.964-1.536-.914-2 .089-.828-2.492-1.672-2.754-1.441-.9.794-.495 2.025-.885 2.363-.587.97-1.417 1.864-.68 2.63.286.295.512.206.528.647.036.964.263 2.114 1.074 2.6.812.485 1.912.156 2.526.05.614-.104.56-.285 1.021-.044.46.24.447.79.726 1.318.278.527.946 1.568 1.149 2.143M158.43 125.5c-1.343 1.284-2.557 2.399-4.429 2.742-.945.173-2.23.869-2.923 1.346-.693.476-.464 1.209-.464 1.209s1.534.96 2.504.66c.97-.299 1.46-.995 2.483-1.488 2.136-1.03 4.636-2.123 6.787-3.265"/>
        <path fill="#F7F4EC" d="M171.322 104.372c.839.368 5.6 3.646 6.5 5.204 1.117 1.933 1.732 2.68 2.92 4.348 2.128 2.986 7.192 4.842 9.256 8.307 2.064 3.465-7.505 10.063-8.674 8.316-1.17-1.748-6.012-7.029-7.442-8.326-1.105-1.003-4.9-5.085-4.954-5.085-1.596 0-1.596-8.775-1.596-8.775a22.775 22.775 0 0 1 3.99-3.99"/>
        <path fill="#26265E" d="M167.91 110.614c1.2-2.035 1.78-3.815 3.425-4.75 1.645-.936 2.724-.648 4.108 1.366 1.385 2.014-.343 6.87-2.406 8.97-2.064 2.101-3.122 4.878-5.262 7.114-2.14 2.235-6.933 5.046-8.076 5.817-1.144.77-2.152.903-2.797 1.417-.491-1.288-.854-2.547-1.064-3.893 3.058-2.294 8.348-5.821 9.123-7.271.776-1.45 1.748-6.736 2.948-8.77"/>
        <path fill="#26265E" d="M172.87 106.036c4.486 1.153 8.56 5.061 11.8 8.175 5.104 1.047 9.38 2.479 14.384 3.876-.513 4.182-3.73 6.72-6.17 9.956-4.596-1.916-9.98-3.573-14.266-5.93-4.284-2.355-6.97-6.387-10.443-9.58 1.587-2.199 3.09-4.353 4.695-6.497"/>
        <path fill="#8284BF" d="M192.902 128.029c-4.9-1.636-9.659-3.772-14.392-5.833 4.23.588 8.496 1.022 12.77 1.062.646 1.633 1.299 3.004 1.622 4.77"/>
        <path fill="#F27576" d="M167.342 109.34c.442-.737 2.308-3.311 3.722-3.936 1.413-.625 3.744-.158 4.888-1.044 1.143-.888 2.143-2.582 3.586-2.835.506.05 1.055.109 1.58.16-.034.274-.053 1.313-.096 1.607-1.81.752-3.412 2.013-5.188 2.599-1.775.585-4.186.274-5.485 1.27-1.299.996-2.275 2.26-2.712 3.204-.437.945-.737-.29-.295-1.026"/>
        <path fill="#282460" d="M171.175 170.433l6.394.953.235-1.578-6.394-.953zM184.887 183.353h29.922a.399.399 0 1 0 0-.798h-29.922a.399.399 0 1 0 0 .798M126.638 182.555h29.922a.399.399 0 1 0 0-.798h-29.922a.399.399 0 1 0 0 .798"/>
        <path fill="#B2E0E3" d="M224.754 180.605c-2.096 5.442-4.363 13.573-4.363 13.573s12.415-11.734 15.141-15.27c2.726-3.539 9.318-11.55 7.062-12.51-2.508-1.068-8.09 2.71-12.194 6.405-2.696 2.427-4.591 5.063-5.646 7.802"/>
        <path stroke="#FEFEFE" stroke-linecap="round" stroke-linejoin="round" stroke-width="2" d="M219.826 194.535c8.888-9.501 6.768-19.912 22.721-28.037"/>
        <path fill="#B2E0E3" d="M214.335 167.619c-.972 12.224 5.79 26.566 5.79 26.566-.417-.224 5.742-20.656 8.084-25.934 2.462-5.548 7.399-19.186 1.589-20.119-5.81-.934-15.02 13.897-15.463 19.487"/>
        <path stroke="#FEFEFE" stroke-linecap="round" stroke-linejoin="round" stroke-width="2" d="M219.83 194.623c-2.858-16.827.666-37.647 9.898-46.4"/>
        <path fill="#B2E0E3" d="M224.759 189.894c-2.887 2.536-4.795 5.106-4.795 5.106s6.507-3.273 12.254-4.67c2.333-.567 4.61-1.195 6.733-1.948 3.221-1.143 6.417-2.522 5.105-3.514-.866-.655-3.25-.61-5.907-.254-5.659.759-10.445 2.692-13.39 5.28"/>
        <path stroke="#FEFEFE" stroke-linecap="round" stroke-linejoin="round" stroke-width="2" d="M219.65 195.052c6.178-5.075 16.722-9.838 24.337-10.175"/>
        <path fill="#E4F3F5" d="M213.99 173.03c6.643 7.385 4.519 21.076 4.519 21.076s-10.329-14.498-14.254-18.896c-3.925-4.399-15.823-14.256-11.188-15.55 4.636-1.294 17.094 8.588 20.924 13.37"/>
        <path stroke="#FEFEFE" stroke-linecap="round" stroke-linejoin="round" stroke-width="2" d="M219.08 194.565c-3.812-16.063-12.708-27.179-26.175-34.877"/>
        <path fill="#B2E0E3" d="M210.922 179.334c3.542 5.146 6.284 10.342 8.82 15.414-4.978-3.343-15.07-9.315-18.098-12.435-3.027-3.12-14.295-10.584-9.397-13.543 4.897-2.958 17.035 8.353 18.675 10.564"/>
        <path stroke="#FEFEFE" stroke-linecap="round" stroke-linejoin="round" stroke-width="2" d="M220.512 195.101c-7.988-8.528-14.515-17.976-28.883-26.618"/>
        <path fill="#E4F3F5" d="M213.935 188.005c1.83 2.322 3.814 4.533 5.68 6.664-3.855-2.158-6.737-3.875-11.127-5.769-1.783-.768-5.06-2.089-7.363-3.139-2.303-1.05-6.218-3.054-2.504-4.659 6.353-1.832 13.484 4.581 15.314 6.903"/>
        <path stroke="#FEFEFE" stroke-linecap="round" stroke-linejoin="round" stroke-width="2" d="M219.932 194.72c-4.668-3.923-13.86-11.35-21.4-13.675"/>
    </g>
</svg>
